<svg width="20" height="20" viewBox="0 0 20 20" fill="none" xmlns="http://www.w3.org/2000/svg">
<g id="eye off">
<path id="Vector" d="M5.83335 5.3015C6.96843 4.63276 8.35102 4.16663 10 4.16663C15.2562 4.16663 17.8059 8.90263 18.2591 9.83996C18.3088 9.94254 18.3085 10.0578 18.2589 10.1605C17.9654 10.7673 16.7952 12.962 14.5834 14.437M11.6667 15.6667C11.1446 15.7738 10.5893 15.8333 10 15.8333C4.74389 15.8333 2.19407 11.0973 1.74093 10.16C1.69129 10.0574 1.69209 9.94088 1.74175 9.83821C1.92398 9.46154 2.44152 8.47838 3.33335 7.43424" stroke="#94A3B8" stroke-width="2" stroke-linecap="round" stroke-linejoin="round"/>
<path id="Vector_2" d="M8.33325 8.13658C8.77559 7.74071 9.35959 7.5 9.99992 7.5C11.3807 7.5 12.4999 8.61925 12.4999 10C12.4999 10.6403 12.2592 11.2243 11.8633 11.6667" stroke="#94A3B8" stroke-width="2" stroke-linecap="round" stroke-linejoin="round"/>
<path id="Vector_3" d="M2.5 2.5L17.5 17.5" stroke="#94A3B8" stroke-width="2" stroke-linecap="round" stroke-linejoin="round"/>
</g>
</svg>
