<svg width="20" height="20" viewBox="0 0 20 20" fill="none" xmlns="http://www.w3.org/2000/svg">
<g id="eye">
<path id="Vector" d="M10.0004 4.16663C4.74429 4.16663 2.19447 8.90263 1.74133 9.83996C1.69169 9.94254 1.69169 10.0574 1.74133 10.16C2.19447 11.0973 4.74429 15.8333 10.0004 15.8333C15.2566 15.8333 17.8063 11.0973 18.2595 10.16C18.3092 10.0574 18.3092 9.94254 18.2595 9.83996C17.8063 8.90263 15.2566 4.16663 10.0004 4.16663Z" stroke="#94A3B8" stroke-width="2" stroke-linecap="round" stroke-linejoin="round"/>
<path id="Vector_2" d="M10 12.5C11.3807 12.5 12.5 11.3807 12.5 10C12.5 8.61929 11.3807 7.5 10 7.5C8.61929 7.5 7.5 8.61929 7.5 10C7.5 11.3807 8.61929 12.5 10 12.5Z" stroke="#94A3B8" stroke-width="2" stroke-linecap="round" stroke-linejoin="round"/>
</g>
</svg>
