<svg width="392" height="372" viewBox="0 0 392 372" fill="none" xmlns="http://www.w3.org/2000/svg">
<g clip-path="url(#clip0_18_5250)">
<path d="M101.863 248.283H70.1152V257.52H101.863V248.283Z" fill="#F4F4F4"/>
<path opacity="0.05" d="M78.5385 248.283H74.3787V257.52H78.5385V248.283Z" fill="#292A2E"/>
<path d="M97.8059 250.291H80.509V255.765H97.8059V250.291Z" fill="#00BCFF"/>
<path d="M127.185 249.488L97.6865 236.604L93.9892 245.069L123.488 257.953L127.185 249.488Z" fill="#F4F4F4"/>
<path opacity="0.05" d="M127.185 249.488L97.6865 236.604L93.9892 245.069L123.488 257.953L127.185 249.488Z" fill="#292A2E"/>
<path d="M123.224 247.758L119.359 246.069L115.661 254.534L119.527 256.223L123.224 247.758Z" fill="#00BCFF"/>
<path d="M116.724 247.109L100.652 240.09L98.4614 245.106L114.533 252.126L116.724 247.109Z" fill="#00BCFF"/>
<path opacity="0.05" d="M127.241 365.301H119.263V370.629H127.241V365.301Z" fill="#292A2E"/>
<path opacity="0.05" d="M45.673 365.301H37.6948V370.629H45.673V365.301Z" fill="#292A2E"/>
<path d="M134.554 257.953H30.3813V365.121H134.554V257.953Z" fill="#F4F4F4"/>
<path opacity="0.03" d="M134.554 257.953H30.3813V365.121H134.554V257.953Z" fill="#292A2E"/>
<path d="M153.859 257.953H49.686V365.121H153.859V257.953Z" fill="#F4F4F4"/>
<path opacity="0.05" d="M146.546 365.301H138.567V370.629H146.546V365.301Z" fill="#292A2E"/>
<path opacity="0.05" d="M64.9777 365.301H56.9995V370.629H64.9777V365.301Z" fill="#292A2E"/>
<path opacity="0.7" d="M149.949 262.972H53.5969V283.561H149.949V262.972Z" fill="#00BCFF"/>
<path opacity="0.7" d="M149.949 288.601H53.5969V309.19H149.949V288.601Z" fill="#00BCFF"/>
<path opacity="0.7" d="M149.949 314.229H53.5969V334.818H149.949V314.229Z" fill="#00BCFF"/>
<path opacity="0.05" d="M101.773 276.148C103.364 276.148 104.654 274.858 104.654 273.267C104.654 271.676 103.364 270.386 101.773 270.386C100.182 270.386 98.8918 271.676 98.8918 273.267C98.8918 274.858 100.182 276.148 101.773 276.148Z" fill="#292A2E"/>
<path opacity="0.05" d="M101.773 301.776C103.364 301.776 104.654 300.487 104.654 298.896C104.654 297.305 103.364 296.015 101.773 296.015C100.182 296.015 98.8918 297.305 98.8918 298.896C98.8918 300.487 100.182 301.776 101.773 301.776Z" fill="#292A2E"/>
<path opacity="0.05" d="M101.773 327.405C103.364 327.405 104.654 326.115 104.654 324.524C104.654 322.933 103.364 321.643 101.773 321.643C100.182 321.643 98.8918 322.933 98.8918 324.524C98.8918 326.115 100.182 327.405 101.773 327.405Z" fill="#292A2E"/>
<path opacity="0.7" d="M149.949 340.435H53.5969V361.024H149.949V340.435Z" fill="#00BCFF"/>
<path opacity="0.05" d="M101.773 353.611C103.364 353.611 104.654 352.321 104.654 350.73C104.654 349.139 103.364 347.849 101.773 347.849C100.182 347.849 98.8921 349.139 98.8921 350.73C98.8921 352.321 100.182 353.611 101.773 353.611Z" fill="#292A2E"/>
<path d="M0.277452 371.368H391.722C391.876 371.368 392 371.244 392 371.09C392 370.937 391.876 370.813 391.722 370.813H0.277452C0.124103 370.813 0 370.937 0 371.09C0 371.244 0.124103 371.368 0.277452 371.368Z" fill="#292A2E"/>
<g opacity="0.65">
<path d="M0.277452 371.368H391.722C391.876 371.368 392 371.244 392 371.09C392 370.937 391.876 370.813 391.722 370.813H0.277452C0.124103 370.813 0 370.937 0 371.09C0 371.244 0.124103 371.368 0.277452 371.368Z" fill="#292A2E"/>
</g>
<path d="M365.234 371.206L366.01 371.057L353.878 250.499L353.102 250.649L365.234 371.206Z" fill="#494949"/>
<path d="M320.06 371.206L320.836 371.057L308.704 250.499L307.928 250.649L320.06 371.206Z" fill="#494949"/>
<path d="M220.205 371.206L219.429 371.057L231.561 250.499L232.337 250.649L220.205 371.206Z" fill="#494949"/>
<path d="M265.379 371.206L264.603 371.057L276.735 250.499L277.511 250.649L265.379 371.206Z" fill="#494949"/>
<path d="M281.465 197.438L274.378 250.519L275.161 250.624L282.248 197.543L281.465 197.438Z" fill="#494949"/>
<path d="M362.812 197.438L355.725 250.519L356.509 250.624L363.596 197.543L362.812 197.438Z" fill="#494949"/>
<path d="M274.449 254.461H354.017C356.163 254.461 357.904 252.721 357.904 250.574V250.574C357.904 248.427 356.163 246.686 354.017 246.686H274.449C272.302 246.686 270.562 248.427 270.562 250.574V250.574C270.562 252.721 272.302 254.461 274.449 254.461Z" fill="#292A2E"/>
<path opacity="0.8" d="M274.449 254.461H354.017C356.163 254.461 357.904 252.721 357.904 250.574V250.574C357.904 248.427 356.163 246.686 354.017 246.686H274.449C272.302 246.686 270.562 248.427 270.562 250.574V250.574C270.562 252.721 272.302 254.461 274.449 254.461Z" fill="#00BCFF"/>
<path d="M270.167 250.574C270.167 248.212 272.088 246.292 274.449 246.292H354.017C356.378 246.292 358.299 248.212 358.299 250.574C358.299 252.935 356.378 254.856 354.017 254.856H274.449C272.087 254.856 270.167 252.935 270.167 250.574ZM274.449 247.082C272.523 247.082 270.957 248.648 270.957 250.574C270.957 252.499 272.523 254.066 274.449 254.066H354.017C355.942 254.066 357.509 252.499 357.509 250.574C357.509 248.648 355.942 247.082 354.017 247.082H274.449Z" fill="#292A2E"/>
<path d="M230.778 254.461H310.346C312.492 254.461 314.233 252.721 314.233 250.574V250.574C314.233 248.427 312.492 246.686 310.346 246.686H230.778C228.631 246.686 226.89 248.427 226.89 250.574V250.574C226.89 252.721 228.631 254.461 230.778 254.461Z" fill="#00BCFF"/>
<path d="M226.495 250.574C226.495 248.212 228.416 246.292 230.778 246.292H310.345C312.707 246.292 314.628 248.212 314.628 250.574C314.628 252.935 312.706 254.856 310.345 254.856H230.778C228.416 254.856 226.495 252.935 226.495 250.574ZM230.778 247.082C228.852 247.082 227.285 248.648 227.285 250.574C227.285 252.499 228.852 254.066 230.778 254.066H310.345C312.271 254.066 313.837 252.499 313.837 250.574C313.837 248.648 312.271 247.082 310.345 247.082H230.778Z" fill="#292A2E"/>
<path d="M285.827 197.492H362.995C365.604 197.492 367.809 195.556 368.147 192.968L373.251 153.769C373.656 150.66 371.235 147.903 368.099 147.903H290.931C288.322 147.903 286.117 149.839 285.78 152.427L280.675 191.626C280.27 194.736 282.691 197.492 285.827 197.492Z" fill="#292A2E"/>
<path opacity="0.8" d="M285.827 197.492H362.995C365.604 197.492 367.809 195.556 368.147 192.968L373.251 153.769C373.656 150.66 371.235 147.903 368.099 147.903H290.931C288.322 147.903 286.117 149.839 285.78 152.427L280.675 191.626C280.27 194.736 282.691 197.492 285.827 197.492Z" fill="#00BCFF"/>
<path d="M281.626 195.986C280.565 194.778 280.076 193.17 280.283 191.575L285.388 152.376C285.75 149.601 288.132 147.507 290.931 147.507H368.099C369.707 147.507 371.238 148.2 372.3 149.409C373.361 150.618 373.85 152.225 373.643 153.82L368.538 193.019C368.177 195.794 365.794 197.887 362.995 197.887H285.827C284.219 197.887 282.688 197.194 281.626 195.986V195.986ZM290.931 148.298C288.528 148.298 286.482 150.095 286.172 152.479L281.067 191.678C280.889 193.047 281.309 194.427 282.22 195.465C283.132 196.502 284.446 197.098 285.827 197.098H362.995C365.398 197.098 367.444 195.3 367.754 192.918L372.859 153.719C373.037 152.349 372.617 150.969 371.706 149.931C370.795 148.894 369.48 148.299 368.1 148.299H290.932L290.931 148.298Z" fill="#292A2E"/>
<path d="M281.463 197.492H358.631C361.241 197.492 363.446 195.556 363.783 192.968L368.887 153.769C369.292 150.66 366.871 147.903 363.735 147.903H286.568C283.958 147.903 281.753 149.839 281.416 152.427L276.311 191.626C275.907 194.736 278.327 197.492 281.463 197.492Z" fill="#00BCFF"/>
<path d="M277.263 195.986C276.201 194.778 275.712 193.17 275.92 191.575L281.024 152.376C281.386 149.601 283.769 147.507 286.568 147.507H363.735C365.344 147.507 366.875 148.2 367.936 149.409C368.997 150.618 369.487 152.225 369.279 153.82L364.174 193.019C363.813 195.794 361.43 197.887 358.631 197.887H281.463C279.855 197.887 278.324 197.194 277.263 195.986V195.986ZM286.568 148.298C284.164 148.298 282.118 150.095 281.808 152.479L276.703 191.678C276.525 193.047 276.945 194.427 277.857 195.465C278.768 196.502 280.082 197.098 281.463 197.098H358.631C361.034 197.098 363.08 195.3 363.391 192.918L368.495 153.719C368.673 152.349 368.253 150.968 367.342 149.931C366.431 148.894 365.116 148.298 363.735 148.298H286.568Z" fill="#292A2E"/>
<path d="M293.683 83.4049C293.683 83.4049 289.413 78.6048 289.912 69.6192C290.299 62.6619 295.663 68.2908 295.663 68.2908C295.663 68.2908 295.99 63.284 299.446 64.4776C302.901 65.6712 303.869 71.193 303.869 71.193" fill="#0C0C0C"/>
<path d="M317.7 68.7184C317.7 68.7184 334.955 74.1315 323.807 96.751L322.226 96.5439L319.017 96.1234" fill="#0C0C0C"/>
<path d="M292.915 120.432C292.994 120.422 293.872 134.978 310.782 133.709C322.489 132.832 326.663 120.412 326.931 120.412C325.669 120.143 324.109 119.736 323.489 119.597C321.429 119.133 318.858 117.433 318.264 113.853C317.922 111.79 318.502 101.234 318.324 99.1465L300.354 103.157C300.605 107.566 302.362 117.788 296.202 119.597C295.178 119.896 294.074 120.171 292.915 120.432H292.915Z" fill="#FF9E85"/>
<path opacity="0.22" d="M300.102 115.419C300.357 114.607 300.508 113.9 300.643 112.63C300.884 110.359 300.756 108.271 300.526 106.143C304.156 105.66 307.641 104.133 310.457 101.792C310.791 103.025 312.626 108.409 312.118 109.58C311.158 111.794 306.644 115.419 300.102 115.419Z" fill="#0C0C0C"/>
<path d="M302.474 110.388C309.551 111.153 318.749 108.423 320.755 99.0101L322.564 90.517C324.569 81.1042 321.251 72.4205 312.388 70.5321C303.526 68.6441 295.276 74.8635 293.27 84.2759L292.469 88.0361C292.304 88.81 292.09 90.2162 291.979 91.9616C291.757 95.4435 291.433 100.741 293.038 104.689C294.553 108.416 297.953 109.899 302.474 110.388Z" fill="#FF9E85"/>
<path d="M296.871 88.7208C296.904 88.1761 296.49 87.7076 295.945 87.6743C295.4 87.641 294.932 88.0556 294.898 88.6002C294.865 89.1449 295.28 89.6135 295.824 89.6468C296.369 89.6801 296.838 89.2655 296.871 88.7208Z" fill="#0A0A0A"/>
<path d="M301.857 97.7138C302.056 97.726 302.237 97.5857 302.27 97.3842C302.306 97.1688 302.161 96.9652 301.945 96.9293L299.87 96.583L301.411 92.4884C301.487 92.2841 301.384 92.0561 301.179 91.9794C300.975 91.9027 300.747 92.0059 300.67 92.2102L298.96 96.7546C298.919 96.8652 298.929 96.9885 298.988 97.0913C299.047 97.1941 299.149 97.2644 299.265 97.2838L301.815 97.709C301.829 97.7114 301.843 97.713 301.857 97.7138Z" fill="#0A0A0A"/>
<path d="M302.048 102.21C305.624 102.428 306.82 100.332 306.874 100.234C306.979 100.042 306.909 99.8021 306.718 99.697C306.528 99.5923 306.288 99.6614 306.183 99.8512C306.132 99.9405 304.911 101.996 301.005 101.285C300.786 101.244 300.584 101.389 300.545 101.603C300.505 101.818 300.648 102.024 300.863 102.063C301.284 102.14 301.679 102.187 302.048 102.21H302.048Z" fill="#0A0A0A"/>
<path d="M305.992 86.6801C305.88 86.9682 306.922 87.4729 308.401 87.9678C309.879 88.4626 311.222 88.8361 311.347 88.4717C311.504 88.0116 310.451 86.841 308.973 86.3461C307.495 85.8513 306.17 86.2272 305.992 86.6801Z" fill="#0A0A0A"/>
<path d="M307.304 89.9302C307.338 89.3855 306.923 88.917 306.378 88.8837C305.834 88.8504 305.365 89.265 305.332 89.8097C305.298 90.3543 305.713 90.8229 306.258 90.8562C306.802 90.8895 307.271 90.4749 307.304 89.9302Z" fill="#0A0A0A"/>
<path d="M294.002 86.154C294.015 86.4631 295.173 86.5014 296.725 86.3536C298.277 86.2058 299.656 86.0027 299.622 85.6189C299.579 85.1343 298.304 84.4676 296.752 84.615C295.2 84.7628 293.979 85.6683 294.002 86.154Z" fill="#0A0A0A"/>
<path d="M319.593 101.761C322.287 102.334 325.084 99.918 325.658 97.2249C326.231 94.5314 324.364 92.5809 321.671 92.0074L319.899 93.5164L317.278 101.267L319.593 101.761Z" fill="#FF9E85"/>
<path d="M318.611 96.9755C318.153 96.9261 317.82 96.5174 317.867 96.059C318.173 93.0959 318.948 83.1053 315.645 81.7164C313.059 80.6283 305.755 83.1472 299.928 80.7817C297.379 79.747 294.733 79.9003 294.227 81.1006C294.026 81.5761 293.798 74.124 299.028 69.5476C303.192 65.904 314.247 66.849 318.884 69.2429C331.724 75.8717 322.111 92.7066 322.111 92.7066L320.8 96.5534C320.674 96.9249 320.306 97.1589 319.916 97.1166L318.611 96.9755Z" fill="#0C0C0C"/>
<path d="M308.381 71.4791C309.583 68.6602 309.005 65.7127 307.09 64.8959C305.174 64.079 302.647 65.702 301.445 68.521C300.242 71.3399 300.82 74.2873 302.736 75.1042C304.651 75.9211 307.178 74.2981 308.381 71.4791Z" fill="#0C0C0C"/>
<path d="M183.536 350.718C183.536 350.718 181.417 361.703 171.131 362.315C160.846 362.928 163.077 371.121 163.077 371.121H202.38V351.484L183.535 350.718L183.536 350.718Z" fill="#F0F9FF"/>
<path d="M258.309 343.782C258.309 343.782 261.256 354.575 252.298 359.664C243.339 364.753 248.957 371.121 248.957 371.121L284.225 353.772L275.557 336.152L258.309 343.782H258.309Z" fill="#F0F9FF"/>
<path d="M280.153 340.734L250.412 246.91H304.321C315.149 246.91 319.665 237.727 319.665 226.898C319.665 216.07 309.019 206.577 298.19 206.577H225.432C218.828 206.577 211.422 210.616 207.797 216.138C204.172 221.659 205.151 230.215 207.778 236.275L255.402 351.946" fill="#262626"/>
<path opacity="0.8" d="M280.153 340.734L250.412 246.91H304.321C315.149 246.91 319.665 237.727 319.665 226.898C319.665 216.07 309.019 206.577 298.19 206.577H225.432C218.828 206.577 211.422 210.616 207.797 216.138C204.172 221.659 205.151 230.215 207.778 236.275L255.402 351.946" fill="#0A0A0A"/>
<path d="M204.641 360.919L254.368 246.91L319.664 246.906C334.964 245.706 341.971 237.321 341.749 226.495C341.529 215.806 336.117 205.248 325.475 205.248C325.313 205.248 284.559 205.248 284.559 205.248H237.47C229.597 205.41 223.403 214.111 220.482 221.423L179.14 353.94" fill="#262626"/>
<path d="M346.203 205.379C346.203 205.379 349.103 224.289 344.506 234.803C338.768 247.929 317.256 246.906 317.256 246.906L318.468 205.248L346.203 205.379Z" fill="#262626"/>
<path d="M218.61 205.007L264.734 195.45C268.64 194.64 271.862 191.892 273.278 188.163L291.419 140.358C293.706 134.332 290.675 127.592 284.649 125.306C278.621 123.018 271.883 126.05 269.596 132.076L253.727 173.893L213.874 182.151C213.874 182.151 217.811 205.173 218.61 205.008L218.61 205.007Z" fill="#F0F9FF"/>
<path d="M271.959 152.498C272.491 158.755 276.268 197.795 276.78 205.503H346.173C346.571 198.551 347.866 169.036 349.378 155.443C350.821 142.471 351.344 135.068 349.682 131.037C346.75 123.927 339.413 121.368 333.094 120.513C329.235 119.99 323.431 119.616 323.431 119.616C323.431 119.616 322.939 129.557 311.222 130.111C295.27 130.863 296.336 119.616 296.257 119.616C293.673 119.616 279.606 121.495 276.089 123.788C271.121 127.025 269.653 131.438 269.595 135.492C269.528 140.16 271.353 145.4 271.959 152.498Z" fill="#F0F9FF"/>
<path d="M274.687 184.398C274.692 184.398 274.698 184.398 274.703 184.397C274.812 184.388 274.893 184.292 274.884 184.183L273.082 162.543C273.074 162.434 272.982 162.349 272.869 162.362C272.76 162.371 272.68 162.467 272.688 162.576L274.49 184.216C274.498 184.319 274.585 184.397 274.687 184.397V184.398Z" fill="#0C0C0C"/>
<path d="M241.636 197.386L226.409 150.581C225.86 148.894 224.288 147.752 222.513 147.752H160.481C157.698 147.752 155.724 150.469 156.585 153.116L171.812 199.92C172.361 201.608 173.933 202.75 175.707 202.75H237.74C240.523 202.75 242.497 200.033 241.636 197.386Z" fill="#292A2E"/>
<path d="M241.636 197.386L226.409 150.581C225.86 148.894 224.288 147.752 222.513 147.752H160.481C157.698 147.752 155.724 150.469 156.585 153.116L171.812 199.92C172.361 201.608 173.933 202.75 175.707 202.75H237.74C240.523 202.75 242.497 200.033 241.636 197.386Z" fill="#292A2E"/>
<path d="M270.74 198.954H229.215C228.18 198.954 227.342 199.793 227.342 200.828V200.876C227.342 201.911 228.18 202.749 229.215 202.749H270.74C271.774 202.749 272.613 201.911 272.613 200.876V200.828C272.613 199.793 271.774 198.954 270.74 198.954Z" fill="#292A2E"/>
<path d="M270.74 198.954H229.215C228.18 198.954 227.342 199.793 227.342 200.828V200.876C227.342 201.911 228.18 202.749 229.215 202.749H270.74C271.774 202.749 272.613 201.911 272.613 200.876V200.828C272.613 199.793 271.774 198.954 270.74 198.954Z" fill="#292A2E"/>
<path d="M199.111 184.04C202.704 184.04 205.617 181.127 205.617 177.534C205.617 173.941 202.704 171.028 199.111 171.028C195.518 171.028 192.605 173.941 192.605 177.534C192.605 181.127 195.518 184.04 199.111 184.04Z" fill="#00BCFF"/>
<path d="M245.107 186.422L255.47 182.789L253.982 182.686C252.997 182.578 252.195 181.744 252.252 180.754C252.312 179.699 253.241 178.922 254.278 179.036L272.613 180.985L272.137 186.877C271.834 190.62 269.29 193.806 265.706 194.929L257.766 197.403C256.922 197.667 255.968 197.339 255.549 196.559C255.145 195.806 255.313 194.955 255.837 194.409C255.815 194.391 255.794 194.369 255.783 194.34C255.762 194.285 255.774 194.227 255.806 194.181L254.342 194.64C253.396 194.937 252.326 194.494 251.981 193.565C251.663 192.709 252.023 191.784 252.769 191.347C252.752 191.338 252.738 191.326 252.724 191.311L252.123 191.499C251.278 191.764 250.325 191.436 249.906 190.656C249.415 189.744 249.763 188.687 250.57 188.204C250.567 188.192 250.564 188.179 250.564 188.167L246.249 189.679C245.349 189.995 244.364 189.521 244.049 188.621C243.733 187.721 244.207 186.737 245.107 186.422Z" fill="#FF9E85"/>
<path opacity="0.2" d="M250.734 188.336C250.754 188.336 250.774 188.333 250.793 188.326L254.968 186.808C255.057 186.775 255.103 186.677 255.071 186.587C255.038 186.498 254.94 186.453 254.851 186.485L250.676 188.003C250.587 188.035 250.541 188.134 250.573 188.223C250.598 188.293 250.664 188.336 250.734 188.336Z" fill="#0A0A0A"/>
<path opacity="0.2" d="M252.844 191.371C252.863 191.371 252.883 191.368 252.902 191.362L256.193 190.194C256.282 190.162 256.329 190.064 256.297 189.975C256.266 189.885 256.167 189.838 256.078 189.87L252.787 191.037C252.698 191.069 252.651 191.167 252.682 191.257C252.707 191.327 252.774 191.371 252.844 191.371Z" fill="#0A0A0A"/>
<path opacity="0.2" d="M255.943 194.451C255.963 194.451 255.984 194.447 256.004 194.44L257.545 193.852C257.634 193.818 257.679 193.719 257.645 193.63C257.611 193.541 257.512 193.496 257.423 193.531L255.882 194.118C255.793 194.152 255.749 194.251 255.782 194.34C255.808 194.409 255.874 194.451 255.943 194.451V194.451Z" fill="#0A0A0A"/>
<path d="M264.498 177.498L307.973 177.468L324.42 137.347L348.955 147.662L328.435 195.28L328.234 195.754C326.238 200.36 321.521 203.454 316.219 203.141L263.84 200.047L264.498 177.498Z" fill="#F0F9FF"/>
<path d="M316.94 203.36C321.885 203.36 326.434 200.406 328.416 195.833L328.617 195.357L346.102 154.784L345.739 154.628L328.053 195.677C326.04 200.322 321.289 203.241 316.231 202.944L264.043 199.861L264.69 177.695L308.106 177.666L320.752 146.817L320.387 146.667L307.84 177.271L264.306 177.3L263.637 200.233L263.829 200.244L316.208 203.339C316.453 203.353 316.698 203.36 316.941 203.36H316.94Z" fill="#0C0C0C"/>
<path d="M95.1826 206.539L78.5208 371.488L79.3072 371.568L95.9691 206.618L95.1826 206.539Z" fill="#494949"/>
<path d="M365.297 206.537L364.511 206.616L381.184 371.565L381.971 371.485L365.297 206.537Z" fill="#494949"/>
<path d="M296.41 206.537L295.623 206.616L312.305 371.564L313.091 371.484L296.41 206.537Z" fill="#494949"/>
<path d="M26.2945 206.538L9.63257 371.488L10.419 371.567L27.0809 206.618L26.2945 206.538Z" fill="#494949"/>
<path d="M11.2688 209.816L379.23 209.816C381.019 209.816 382.469 208.366 382.469 206.577C382.469 204.789 381.019 203.339 379.23 203.339L11.2688 203.339C9.48026 203.339 8.0303 204.789 8.0303 206.577C8.0303 208.366 9.48026 209.816 11.2688 209.816Z" fill="#292A2E"/>
<path opacity="0.8" d="M11.2688 209.816L379.23 209.816C381.019 209.816 382.469 208.366 382.469 206.577C382.469 204.789 381.019 203.339 379.23 203.339L11.2688 203.339C9.48026 203.339 8.0303 204.789 8.0303 206.577C8.0303 208.366 9.48026 209.816 11.2688 209.816Z" fill="#00BCFF"/>
<path d="M7.63477 206.577C7.63477 204.574 9.2647 202.943 11.2681 202.943H379.23C381.234 202.943 382.864 204.574 382.864 206.577C382.864 208.581 381.234 210.21 379.23 210.21H11.2685C9.2651 210.21 7.63516 208.581 7.63516 206.577H7.63477ZM11.2681 203.734C9.70025 203.734 8.42523 205.009 8.42523 206.577C8.42523 208.145 9.70064 209.42 11.2681 209.42H379.23C380.798 209.42 382.073 208.145 382.073 206.577C382.073 205.01 380.798 203.734 379.23 203.734H11.2681Z" fill="#292A2E"/>
<path d="M11.2689 209.816L307.709 209.816C309.498 209.816 310.948 208.366 310.948 206.577C310.948 204.789 309.498 203.339 307.709 203.339L11.2689 203.339C9.48026 203.339 8.0303 204.789 8.0303 206.577C8.0303 208.366 9.48026 209.816 11.2689 209.816Z" fill="#00BCFF"/>
<path d="M7.63477 206.577C7.63477 204.574 9.2647 202.943 11.2681 202.943H307.709C309.712 202.943 311.342 204.574 311.342 206.577C311.342 208.581 309.712 210.21 307.709 210.21H11.2685C9.2651 210.21 7.63516 208.581 7.63516 206.577H7.63477ZM11.2681 203.734C9.70025 203.734 8.42523 205.009 8.42523 206.577C8.42523 208.145 9.70064 209.42 11.2681 209.42H307.709C309.276 209.42 310.552 208.145 310.552 206.577C310.552 205.01 309.276 203.734 307.709 203.734H11.2681Z" fill="#292A2E"/>
<path d="M53.7644 339.857C53.7644 339.857 46.2796 350.872 52.9135 358.803C59.5475 366.734 52.0298 370.746 52.0298 370.746L24.9714 342.05L39.3085 328.531L53.7644 339.857Z" fill="#F0F9FF"/>
<path d="M93.043 162.746C93.043 162.746 118.308 249.642 112.353 262.344C106.499 274.832 53.0669 347.79 53.0669 347.79L33.8535 331.042L81.3757 253.977C81.3757 253.977 67.3075 209.471 59.7028 186.131C55.1185 172.06 47.404 172.509 46.6713 157.729L93.043 162.745V162.746Z" fill="#262626"/>
<path d="M65.0689 260.704L71.3187 253.587L69.6919 295.364L62.7263 301.985L65.0689 260.704Z" fill="#0A0A0A"/>
<path d="M64.0339 199.508C64.0339 199.508 61.042 181.746 64.2418 185.55C74.6482 197.922 75.6837 235.989 75.6837 235.989L64.0339 199.508Z" fill="#0A0A0A"/>
<path d="M81.5158 349.796C81.5158 349.796 83.6425 360.819 93.9632 361.433C104.284 362.047 102.046 370.27 102.046 370.27H62.6047V350.564L81.5154 349.796H81.5158Z" fill="#F0F9FF"/>
<path d="M22.6266 160.568C22.6266 160.568 22.4515 159.756 22.348 164.505C22.2749 167.859 20.9129 179.729 25.6221 198.45C34.4444 233.528 60.8645 356.83 60.8645 356.83L86.7814 356.613L62.3418 159.49L22.6266 160.568V160.568Z" fill="#262626"/>
<path d="M22.2254 160.711L22.1409 160.715C22.1409 160.715 22.2021 159.083 22.2254 160.711Z" fill="#333333"/>
<path d="M164.096 83.0116C163.755 82.3421 163.059 82.0239 162.389 82.1081C162.389 82.0781 162.389 82.0469 162.37 82.0204C162.337 81.9741 162.285 81.9611 162.233 81.9647L163.391 81.1347C164.091 80.6331 164.377 79.6802 163.964 78.9245C163.536 78.1408 162.614 77.8574 161.848 78.176C161.851 78.1594 161.84 78.144 161.838 78.127L162.314 77.7859C162.972 77.314 163.256 76.4362 162.917 75.701C162.46 74.7118 161.253 74.4256 160.413 75.0276L159.315 75.8145C159.312 75.8081 159.315 75.8002 159.311 75.7943C159.306 75.786 159.294 75.786 159.288 75.7793C159.796 75.2074 159.863 74.3422 159.398 73.694C158.88 72.8601 157.684 73.0308 156.974 73.5395L150.513 78.0025L151.668 76.0583C152.131 75.2785 151.962 74.2331 151.208 73.73C150.403 73.1933 149.324 73.4458 148.836 74.2663L142.53 84.8823C140.992 87.4718 141.793 90.8151 144.338 92.4264C147.241 94.2651 150.97 94.1579 153.763 92.1557L163.521 85.1617C164.164 84.7005 164.456 83.7167 164.096 83.0112L164.096 83.0116Z" fill="#FF9E85"/>
<g opacity="0.25">
<path d="M152.92 80.2253C152.969 80.2929 153.064 80.3091 153.133 80.2612L159.272 76.0089C159.342 75.9603 159.36 75.8643 159.311 75.7939C159.271 75.7244 159.166 75.7062 159.096 75.7548L152.957 80.0071C152.887 80.0557 152.869 80.1518 152.918 80.2221L152.92 80.2249V80.2253Z" fill="#0C0C0C"/>
</g>
<g opacity="0.25">
<path d="M154.72 82.9848C154.77 83.0524 154.864 83.0686 154.933 83.0207L161.785 78.2752C161.855 78.2266 161.872 78.1305 161.824 78.0602C161.779 77.9962 161.679 77.9728 161.609 78.0211L154.757 82.7666C154.688 82.8152 154.67 82.9113 154.718 82.9816L154.72 82.9848Z" fill="#0C0C0C"/>
</g>
<g opacity="0.25">
<path d="M156.653 85.9845C156.703 86.0521 156.797 86.0683 156.866 86.0205L162.332 82.2354C162.402 82.1868 162.419 82.0907 162.371 82.0204C162.32 81.9504 162.226 81.933 162.156 81.9812L156.691 85.7664C156.621 85.815 156.603 85.911 156.651 85.9814L156.653 85.9845Z" fill="#0C0C0C"/>
</g>
<path d="M138.81 82.4646L120.291 114.004L97.6948 84.3657L78.9292 101.284L110.976 142.788L111.186 143.084C112.304 144.618 113.781 145.927 115.575 146.871C121.836 150.163 129.58 147.757 132.873 141.496L159.206 93.8081L138.81 82.465L138.81 82.4646Z" fill="#F0F9FF"/>
<path d="M118.476 117.797C118.44 117.797 118.403 117.788 118.369 117.771C118.253 117.712 118.207 117.57 118.266 117.454L120.082 113.897C120.141 113.781 120.283 113.736 120.398 113.795C120.514 113.853 120.56 113.995 120.501 114.111L118.685 117.669C118.644 117.75 118.561 117.797 118.476 117.797Z" fill="#0C0C0C"/>
<path d="M96.3915 113.824L95.8262 123.786L96.2957 123.813L96.8611 113.851L96.3915 113.824Z" fill="#0C0C0C"/>
<path d="M36.6657 43.3592C36.6657 43.3592 35.7978 56.8188 33.2548 60.8158C25.9336 72.323 23.7001 81.3852 30.8186 88.2801C37.9371 95.1753 83.8433 95.8013 87.5023 80.1735C90.5828 67.0166 84.316 65.5258 82.9133 54.6265C82.2786 49.6948 80.4953 39.3488 80.4953 39.3488" fill="#0A0A0A"/>
<path d="M75.8158 77.6756C75.7363 77.6653 74.8569 92.2572 57.9055 90.985C46.1699 90.106 41.9856 77.6546 41.7168 77.6546C42.9819 77.3859 45.1126 76.9946 45.6746 76.6946C47.5227 75.7018 49.8092 74.6686 50.4048 71.0799C50.7482 69.0117 50.1657 58.4302 50.3451 56.3374L68.3593 60.3581C68.1076 64.778 66.346 75.0239 72.5207 76.8377C73.5479 77.1376 74.655 77.4135 75.8166 77.6756H75.8158Z" fill="#FF9E85"/>
<path opacity="0.22" d="M68.6111 72.6506C68.3558 71.836 68.204 71.1278 68.0692 69.8548C67.8281 67.5778 67.9562 65.4847 68.187 63.352C64.5477 62.8675 61.0539 61.3371 58.2307 58.9902C57.8964 60.2257 55.7878 64.7859 56.2973 65.9597C57.26 68.179 62.053 72.6506 68.6111 72.6506Z" fill="#0C0C0C"/>
<path d="M66.2234 68.0576C59.114 68.6647 51.4908 65.7111 49.6968 56.2319L46.5453 47.6826C44.7513 38.203 48.2756 29.5763 57.2011 27.8871C66.1266 26.1979 73.2957 29.1487 75.0897 38.6279C75.0897 38.6279 76.1971 44.0516 76.3674 45.8863C77.0109 52.8044 77.0109 67.1367 66.2234 68.0576Z" fill="#FF9E85"/>
<path d="M74.877 44.1418C74.8441 44.4493 73.6869 44.4173 72.1467 44.175C70.6065 43.9327 69.2425 43.6458 69.2998 43.2648C69.3718 42.7838 70.6851 42.5909 72.2253 42.8332C73.7656 43.0754 74.9283 43.658 74.877 44.1418Z" fill="#0A0A0A"/>
<path d="M39.405 50.6639L49.4542 53.4364C55.5135 50.9844 55.2981 36.2553 55.2981 36.2553C55.2981 36.2553 62.6585 43.4292 80.4949 39.3488C80.4949 39.3488 76.9184 15.2646 50.5676 22.4973C42.0709 24.8296 35.9725 34.1823 36.7321 45.6259C37.2645 53.6455 39.405 50.6639 39.405 50.6639Z" fill="#0A0A0A"/>
<path d="M49.2649 59.0194C46.5524 59.5328 43.7597 58.5689 42.9981 54.4838C42.4922 51.7701 44.6936 49.7102 47.4061 49.1971L49.1479 50.75L51.5971 58.578L49.2649 59.0194Z" fill="#FF9E85"/>
<path d="M73.2056 48.064C73.7513 48.064 74.1937 47.6217 74.1937 47.076C74.1937 46.5303 73.7513 46.0879 73.2056 46.0879C72.6599 46.0879 72.2175 46.5303 72.2175 47.076C72.2175 47.6217 72.6599 48.064 73.2056 48.064Z" fill="#0A0A0A"/>
<path d="M67.3249 55.2007C67.1249 55.2007 66.9537 55.0497 66.9324 54.8466C66.9095 54.6296 67.0672 54.4351 67.2845 54.4122L69.3777 54.1933L68.0892 50.0125C68.0252 49.8038 68.1422 49.5829 68.3509 49.5185C68.5592 49.4544 68.7805 49.571 68.8449 49.7797L70.2745 54.4201C70.3092 54.5332 70.2915 54.6557 70.2262 54.7545C70.161 54.8533 70.0551 54.9173 69.9377 54.9296L67.3664 55.1983C67.3525 55.1999 67.3387 55.2003 67.3252 55.2003L67.3249 55.2007Z" fill="#0A0A0A"/>
<path d="M65.8661 59.6763C62.2837 59.6763 61.2174 57.5113 61.1695 57.4101C61.0767 57.2125 61.1612 56.9773 61.3585 56.884C61.5545 56.7911 61.7893 56.8749 61.8833 57.0706C61.928 57.1627 63.022 59.289 66.964 58.8175C67.1854 58.7902 67.3778 58.9463 67.4035 59.1629C67.4292 59.3795 67.2747 59.5763 67.0581 59.6024C66.6328 59.6534 66.236 59.6763 65.8661 59.6763Z" fill="#0A0A0A"/>
<path d="M62.8761 43.935C62.971 44.2295 61.8999 44.6698 60.3941 45.0733C58.8883 45.4768 57.5251 45.7677 57.4227 45.3966C57.2935 44.9279 58.4155 44.2188 59.9214 43.8153C61.4272 43.4118 62.7267 43.4718 62.8761 43.935Z" fill="#0A0A0A"/>
<path d="M62.8821 48.7735C63.4278 48.7735 63.8702 48.3311 63.8702 47.7854C63.8702 47.2397 63.4278 46.7973 62.8821 46.7973C62.3364 46.7973 61.894 47.2397 61.894 47.7854C61.894 48.3311 62.3364 48.7735 62.8821 48.7735Z" fill="#0A0A0A"/>
<path d="M43.745 47.3214L43.6208 51.0911C44.3366 50.2303 45.3705 49.6315 46.5709 49.4888C46.8693 49.4493 47.1653 49.4533 47.4546 49.4774C49.2569 50.9053 47.9763 53.5139 49.4541 53.4364C50.2931 53.3925 52.2065 51.4112 52.6653 50.1825C52.9562 49.4035 50.8595 46.4143 50.8698 45.5828" fill="#0A0A0A"/>
<path d="M96.9316 109.753C96.3976 116.026 93.8002 155.162 93.2872 162.889H22.372C21.9724 155.92 20.3409 125.448 18.8252 111.82C17.3782 98.8161 14.5401 92.3055 16.6206 88.4611C20.0203 82.1777 29.311 78.5471 35.6458 77.6894C39.5143 77.1658 45.3325 76.7903 45.3325 76.7903C45.3325 76.7903 45.825 86.756 57.5717 87.3106C73.5623 88.065 72.4944 76.7903 72.5735 76.7903C75.1638 76.7903 89.9625 78.4301 93.5832 80.5762C103.449 86.4185 98.0647 96.4602 96.9316 109.753Z" fill="#F0F9FF"/>
<path d="M141.024 114.135L134.476 145.96C134.202 147.292 133.035 148.252 131.676 148.263L86.5888 148.647C84.7521 148.663 83.3692 146.981 83.7391 145.182L90.2869 113.357C90.5608 112.025 91.728 111.066 93.0872 111.054L138.174 110.67C140.011 110.654 141.394 112.337 141.024 114.135Z" fill="#292A2E"/>
<path d="M98.9814 136.741C99.0613 137.598 98.4261 138.36 97.5839 138.548L96.1958 138.854C96.2429 138.873 96.2851 138.906 96.2994 138.962C96.3041 138.99 96.2946 139.023 96.2804 139.047C96.9298 139.235 97.4471 139.8 97.4942 140.553C97.5507 141.338 96.8966 142.129 96.1251 142.303L84.4045 144.905C83.7974 145.041 83.186 145.107 82.5789 145.107C79.8404 145.107 77.2243 143.771 75.6296 141.451C73.9218 138.972 74.4956 135.579 76.9283 133.806L86.8984 126.517C87.1241 126.353 87.383 126.249 87.6418 126.212L86.7245 130.667L86.9691 130.611L87.0209 130.601L94.6667 129.044C95.5184 128.856 96.6851 129.167 96.8357 130.136C97.0053 130.917 96.6053 131.684 95.9136 132.013C95.9184 132.018 95.9279 132.023 95.9279 132.032C95.9326 132.042 95.9231 132.046 95.9231 132.056L97.2452 131.764C98.2522 131.538 99.2494 132.277 99.2826 133.364C99.3063 134.173 98.6992 134.87 97.9088 135.044L97.3396 135.171C97.3349 135.19 97.3396 135.208 97.3301 135.222C98.1581 135.227 98.8968 135.853 98.9818 136.742L98.9814 136.741Z" fill="#FF9E85"/>
<g opacity="0.25">
<path d="M88.3117 133.599C88.3302 133.681 88.4109 133.733 88.4935 133.716L95.8092 132.216C95.8926 132.199 95.9467 132.117 95.9293 132.033C95.9195 131.953 95.8305 131.895 95.7468 131.913L88.431 133.413C88.3476 133.43 88.2935 133.512 88.3109 133.596L88.3117 133.599Z" fill="#0C0C0C"/>
</g>
<g opacity="0.25">
<path d="M88.8844 136.844C88.903 136.925 88.9836 136.978 89.0662 136.961L97.2305 135.286C97.3139 135.269 97.3681 135.188 97.3507 135.104C97.3345 135.028 97.2519 134.966 97.1681 134.984L89.0038 136.658C88.9204 136.675 88.8662 136.757 88.8836 136.84L88.8844 136.844Z" fill="#0C0C0C"/>
</g>
<g opacity="0.25">
<path d="M89.4845 140.362C89.5031 140.443 89.5837 140.496 89.6663 140.479L96.1789 139.143C96.2623 139.126 96.3165 139.044 96.2991 138.961C96.2801 138.876 96.2003 138.823 96.1165 138.84L89.6039 140.176C89.5205 140.193 89.4663 140.275 89.4837 140.358L89.4845 140.362Z" fill="#0C0C0C"/>
</g>
<path d="M83.6792 149.542L20.092 161.033C19.6248 161.084 19.1577 161.109 18.6933 161.109C15.1575 161.109 11.7518 159.657 9.29782 157.056C6.52131 154.112 5.28385 150.038 5.95534 146.048L14.8571 93.1358C16.0409 86.1003 22.7025 81.3583 29.7392 82.5401C36.7747 83.7238 41.5187 90.3866 40.3349 97.4221L34.2646 133.847L80.8833 127.992L83.6788 149.542L83.6792 149.542Z" fill="#F0F9FF"/>
<path d="M20.0916 161.268C19.9798 161.268 19.8814 161.189 19.8604 161.075C19.8375 160.947 19.9225 160.824 20.0501 160.801L83.4168 149.35L80.6802 128.255L34.2939 134.08C34.2172 134.089 34.1465 134.063 34.0951 134.01C34.0437 133.956 34.0204 133.881 34.0326 133.808L37.8913 110.528C37.9122 110.401 38.0324 110.311 38.162 110.335C38.2901 110.356 38.3766 110.477 38.3553 110.606L34.548 133.574L80.8537 127.759C80.9798 127.743 81.0996 127.833 81.1166 127.962L83.912 149.512C83.9282 149.637 83.844 149.752 83.7203 149.774L20.1335 161.266C20.1193 161.268 20.1055 161.269 20.0912 161.269L20.0916 161.268Z" fill="#0C0C0C"/>
<path d="M34.2285 133.615L30.1382 134.27L30.2126 134.734L34.3029 134.08L34.2285 133.615Z" fill="#0C0C0C"/>
<path d="M249.755 36.3549C249.778 16.2499 233.261 -0.0123058 213.046 0.442606C193.626 0.879732 177.939 16.9937 177.995 36.4189C178.025 46.9661 182.608 56.4418 189.885 62.986C197.917 70.2112 202.686 80.3734 202.674 91.1775V91.2166L224.949 91.2423V91.204C224.961 80.4126 229.728 70.2559 237.776 63.0662C245.116 56.5078 249.742 46.9744 249.755 36.3549Z" fill="#FBB81B"/>
<path d="M224.609 39.9159C224.24 39.4417 223.599 39.1468 222.705 39.0472C221.189 38.8773 219.457 39.7365 217.97 41.4095L217.826 41.57L217.714 41.3905C217.505 41.0538 217.275 40.7463 217.034 40.4772C215.964 39.2784 214.034 38.054 210.909 39.0188C209.783 39.3681 208.832 39.9001 208.085 40.6056L207.976 40.7084L207.866 40.6056C207.613 40.3748 207.341 40.1728 207.055 39.9997C205.299 38.929 203.34 39.1855 202.007 39.5895C201.244 39.8203 200.77 40.5894 200.907 41.3783L209.639 91.2806C209.668 91.4537 209.835 91.5723 210.011 91.5403C210.184 91.5114 210.299 91.3446 210.271 91.1715L201.539 41.2692C201.455 40.7981 201.738 40.3396 202.193 40.2017C203.402 39.8365 205.167 39.599 206.722 40.5479C206.972 40.6985 207.213 40.8779 207.437 41.0831L207.546 41.1823L207.457 41.2977C206.719 42.2593 206.322 43.4035 206.271 44.7018C206.187 46.7918 207.094 48.8818 208.293 49.356C208.771 49.5485 209.296 49.4651 209.694 49.1347C210.101 48.8011 210.722 47.9198 210.322 45.7689C209.966 43.8746 209.354 42.3679 208.498 41.2878L208.405 41.1724L208.514 41.07C209.181 40.4384 210.05 39.9547 211.098 39.6306C213.313 38.948 215.201 39.384 216.554 40.9032C216.845 41.2269 217.108 41.602 217.342 42.0217L217.393 42.1114L217.332 42.1948C217.214 42.3517 217.098 42.5154 216.986 42.6822C215.691 44.6054 214.659 47.3427 215.454 48.811C215.768 49.3881 216.309 49.6797 217.066 49.6797H217.095C217.755 49.6702 218.31 49.2311 218.653 48.449C219.323 46.9198 219.127 44.3267 218.188 42.2786L218.146 42.1889L218.21 42.1118C219.509 40.5412 220.983 39.6661 222.303 39.6661C222.416 39.6661 222.525 39.6725 222.634 39.6824C224.32 39.8748 224.294 40.7499 224.288 40.8491L217.159 91.1909C217.133 91.364 217.255 91.5276 217.431 91.5529C217.598 91.5755 217.767 91.4506 217.793 91.2806L224.919 40.9487C224.929 40.8941 224.983 40.4037 224.608 39.9167L224.609 39.9159ZM209.691 45.8843C210.043 47.7787 209.527 48.4423 209.287 48.6379C209.146 48.7565 208.979 48.8173 208.809 48.8173C208.717 48.8173 208.624 48.798 208.53 48.7628C207.703 48.4328 206.832 46.6953 206.908 44.7271C206.94 43.9769 207.127 42.8679 207.851 41.8356L207.976 41.6561L208.11 41.8324C208.841 42.8197 209.373 44.1825 209.691 45.8843ZM218.067 48.1921C217.823 48.7466 217.493 49.0319 217.086 49.0383H217.025C216.307 49.0383 216.092 48.6375 216.018 48.5063C215.464 47.4807 216.108 45.131 217.518 43.041L217.691 42.7845L217.82 43.0474C218.506 44.8393 218.608 46.9546 218.067 48.1921Z" fill="#00BCFF"/>
<path d="M202.674 91.2164L224.949 91.2421L224.947 92.544C224.94 98.691 219.944 103.676 213.797 103.669C207.65 103.662 202.665 98.6654 202.672 92.5183L202.674 91.2164Z" fill="#262626"/>
</g>
<defs>
<clipPath id="clip0_18_5250">
<rect width="392" height="371.133" fill="white" transform="translate(0 0.433472)"/>
</clipPath>
</defs>
</svg>
