<svg width="22" height="22" viewBox="0 0 22 22" fill="none" xmlns="http://www.w3.org/2000/svg">
<g id="about us">
<path id="Vector" d="M0.916748 18.3333V17.4167C0.916748 13.8728 3.78959 11 7.33341 11C10.8772 11 13.7501 13.8728 13.7501 17.4167V18.3333" stroke="#052F4A" stroke-width="1.5" stroke-linecap="round"/>
<path id="Vector_2" d="M11.9167 12.8333C11.9167 10.302 13.9688 8.25 16.5001 8.25C19.0314 8.25 21.0834 10.302 21.0834 12.8333V13.2917" stroke="#052F4A" stroke-width="1.5" stroke-linecap="round"/>
<path id="Vector_3" d="M7.33341 11.0001C9.35842 11.0001 11.0001 9.35842 11.0001 7.33341C11.0001 5.30837 9.35842 3.66675 7.33341 3.66675C5.30837 3.66675 3.66675 5.30837 3.66675 7.33341C3.66675 9.35842 5.30837 11.0001 7.33341 11.0001Z" stroke="#052F4A" stroke-width="1.5" stroke-linecap="round" stroke-linejoin="round"/>
<path id="Vector_4" d="M16.5 8.25C18.0188 8.25 19.25 7.01878 19.25 5.5C19.25 3.98122 18.0188 2.75 16.5 2.75C14.9812 2.75 13.75 3.98122 13.75 5.5C13.75 7.01878 14.9812 8.25 16.5 8.25Z" stroke="#052F4A" stroke-width="1.5" stroke-linecap="round" stroke-linejoin="round"/>
</g>
</svg>
