<svg width="95" height="94" viewBox="0 0 95 94" fill="none" xmlns="http://www.w3.org/2000/svg">
<g id="consultant 1" clip-path="url(#clip0_60_660)">
<g id="Group">
<path id="Vector" d="M84.7145 0.679199C84.2739 1.06475 82.4563 2.71709 80.6938 4.35107L77.4993 7.30693L73.6071 5.74639C70.8532 4.62646 69.5864 4.2042 69.2743 4.296C68.8703 4.38779 63.7297 8.92256 61.0493 11.5296C59.9477 12.5944 59.7457 13.1636 60.168 13.9347C60.425 14.4304 61.2879 14.7425 61.8387 14.5222C62.0774 14.4304 63.9684 12.8147 66.0246 10.9421C68.0993 9.06943 69.8801 7.52725 69.9903 7.52725C70.1188 7.52725 71.8262 8.18818 73.809 8.996C75.7918 9.80381 77.6278 10.4647 77.8848 10.4647C78.3989 10.4647 78.3621 10.5015 83.6313 5.61787C85.5957 3.80029 87.2664 2.12959 87.3582 1.89092C87.6703 1.0831 86.8625 -9.81369e-05 85.9446 -9.81369e-05C85.7243 -9.81369e-05 85.1735 0.312011 84.7145 0.679199Z" fill="#F0F9FF"/>
<path id="Vector_2" d="M84.9899 9.23477L84.586 9.65703V20.3422V31.0273H81.9239H79.2618V24.1426V17.2395L78.8028 16.7988C78.5274 16.5051 78.1419 16.3398 77.7931 16.3398C77.4442 16.3398 77.0587 16.5051 76.7833 16.7988L76.3243 17.2395V24.1426V31.0273H73.6622H71.0001V22.4352V13.8246L70.5778 13.4391C70.1556 13.0352 69.4763 12.925 68.8888 13.1453C68.0993 13.4574 68.0626 13.8613 68.0626 22.6738V31.0273H65.4923H62.922V26.3824C62.922 21.3703 62.8669 21.0398 61.9306 20.5992C61.3431 20.3055 60.4618 20.5625 60.1681 21.1316C60.0579 21.3152 59.9845 23.5367 59.9845 26.2355V31.0273H56.9735C54.2564 31.0273 53.9259 31.0641 53.5036 31.3945C52.6958 32.0371 52.7142 33.102 53.5403 33.7262C53.7606 33.9098 58.3689 33.9465 73.7173 33.9648H93.6005L94.0411 33.5059C94.5368 33.0285 94.6286 32.2207 94.2614 31.7434C93.7841 31.1191 93.2517 31.0273 90.3876 31.0273H87.5235V20.5625C87.5235 9.4918 87.5052 9.23477 86.6974 8.92266C86.0732 8.68399 85.3755 8.8125 84.9899 9.23477Z" fill="#F0F9FF"/>
<path id="Vector_3" d="M27.1211 21.7375C23.0086 22.6004 19.2633 24.675 16.4911 27.6492C15.0407 29.1914 14.0493 30.6785 13.0211 32.8449C12.1766 34.5891 12.1583 34.6441 12.1032 36.7555C12.0114 39.1605 12.2317 40.7394 12.911 42.7406L13.3516 44.0992L12.7641 45.3109C12.25 46.3574 12.1583 46.7246 12.1766 47.8262C12.195 49.5703 12.7274 50.7637 14.0309 51.957C14.9856 52.8383 16.3075 53.4258 17.2805 53.4258C17.5559 53.4258 17.8129 53.7012 18.1985 54.4355C18.9512 55.8859 20.3465 57.6668 21.4297 58.5848L22.3477 59.3559V61.6141V63.8539L14.6 66.4426C10.3223 67.8746 6.39341 69.2699 5.86099 69.5453C3.74966 70.6285 1.89536 72.7582 1.03247 75.1449C0.610205 76.2648 0.610205 76.4668 0.536768 84.6734L0.481689 93.082L0.940674 93.541L1.39966 94H30.8848H60.37L60.8106 93.541L61.2696 93.1004V85.059C61.2696 76.3016 61.2329 75.9527 60.2047 73.8414C59.5805 72.5562 57.7629 70.6102 56.4594 69.8207C55.8536 69.4535 52.4938 68.2234 47.5918 66.5895L39.6973 63.9457L39.6422 61.5406L39.5872 59.1172L40.6704 58.0523C41.7352 57.0242 43.2774 54.8578 43.6446 53.9031C43.7547 53.5727 43.9567 53.4258 44.2504 53.4258C45.9762 53.4258 48.1977 51.8652 48.9872 50.0844C49.6481 48.5605 49.593 46.8531 48.8036 45.2742L48.1977 44.0441L48.6934 41.4371C49.4094 37.6367 49.4829 35.6172 49.0055 34.0383C48.1977 31.4129 45.9028 28.1449 43.3692 26.0152C41.1293 24.1242 38.6325 22.8391 35.6583 22.0129C33.7856 21.5172 28.9938 21.3519 27.1211 21.7375ZM34.0426 24.6934C37.384 25.391 39.8075 26.6762 42.2493 28.9894C44.5626 31.2109 46.1965 33.9648 46.3618 35.9109C46.4352 36.9941 45.7743 42.0062 45.5172 42.2449C45.4438 42.3184 45.0215 42.3184 44.5809 42.2449L43.7915 42.1348L43.1856 40.4641C41.5883 35.9477 39.9176 33.7262 37.7879 33.2488C36.0438 32.8633 34.3547 33.7262 32.7942 35.8191C29.8934 39.6746 26.5153 41.2719 20.6219 41.6023C19.3368 41.6574 18.2352 41.8227 18.0149 41.9512C17.8129 42.0797 17.2438 42.2266 16.7481 42.2449L15.8485 42.3184L15.4997 41.2168C15.261 40.4824 15.1141 39.3809 15.059 37.9121C14.9672 35.8191 14.9856 35.6355 15.4629 34.5156C16.5461 31.9453 18.8227 29.0996 21.1543 27.4289C22.8985 26.1805 25.1751 25.1891 27.4883 24.675C28.9204 24.3629 32.5372 24.3629 34.0426 24.6934ZM38.1368 36.8473C38.9629 37.7836 39.6973 39.3441 40.8172 42.6488C42.029 46.1922 42.2676 48.1383 41.7352 50.3965C40.7622 54.5273 37.5493 57.7953 33.4551 58.8418C32.0598 59.1906 29.5262 59.1906 28.1309 58.8418C24.1102 57.8137 20.8973 54.6008 19.8692 50.5801C19.5571 49.3316 19.502 46.3207 19.7774 45.3109L19.961 44.65L21.393 44.5398C25.0833 44.2461 28.1676 43.3648 30.7379 41.8227C31.968 41.1066 34.0426 39.1055 35.2543 37.4898C36.5028 35.8375 37.127 35.6906 38.1368 36.8473ZM16.7481 47.8262C16.7481 49.1848 16.693 50.3047 16.6379 50.3047C16.2891 50.3047 15.3711 49.1664 15.1692 48.5055C14.9856 47.8629 15.004 47.6242 15.261 46.9082C15.5364 46.1922 16.2891 45.3477 16.6379 45.3477C16.693 45.3477 16.7481 46.4676 16.7481 47.8262ZM45.5356 45.7148C45.7926 45.9168 46.1415 46.4676 46.3251 46.9082C46.5821 47.6242 46.6004 47.8629 46.4168 48.5055C46.2149 49.1664 45.2969 50.3047 44.9481 50.3047C44.893 50.3047 44.8379 49.1848 44.8379 47.8262C44.8379 46.4676 44.893 45.3477 44.9481 45.3477C45.0215 45.3477 45.2786 45.5129 45.5356 45.7148ZM36.668 62.4953V64.0375L33.804 66.0937L30.9399 68.1316L30.077 67.5258C29.5997 67.1953 28.3329 66.2957 27.2497 65.543L25.3036 64.166L25.2852 62.6422C25.2852 61.816 25.3403 61.1367 25.4321 61.1367C25.5055 61.1367 26.093 61.3203 26.754 61.5406C27.7821 61.8895 28.3696 61.9445 30.793 61.9445C33.4001 61.9445 33.7489 61.9078 34.9239 61.4855C35.6399 61.2102 36.3192 60.9898 36.4477 60.9715C36.6129 60.9531 36.668 61.3754 36.668 62.4953ZM25.9461 68.2051C27.1395 69.068 28.1309 69.8391 28.1309 69.9492C28.1309 70.0777 26.8641 71.0141 21.5766 74.7594L21.0626 75.1082V71.2711V67.4156L22.1274 67.0484C22.6965 66.8465 23.3024 66.6629 23.4676 66.6629C23.6329 66.6445 24.7344 67.3422 25.9461 68.2051ZM39.5688 67.0301L40.7071 67.4156V71.2344V75.0715L37.127 72.5562C35.1626 71.1793 33.5653 70.0043 33.5653 69.9492C33.5469 69.8023 38.0266 66.6629 38.2469 66.6445C38.3387 66.6445 38.9446 66.8098 39.5688 67.0301ZM18.125 73.4926C18.125 78.2844 18.1434 78.523 18.4922 78.9086C18.9879 79.4227 19.6305 79.5879 20.1629 79.2941C20.4016 79.184 21.4297 78.468 22.4762 77.7336C23.5227 76.9809 24.4407 76.375 24.5325 76.375C24.6243 76.375 24.8446 77.3113 25.0098 78.468L25.3403 80.5609L24.4407 85.7566L23.5227 90.9707L18.4372 91.0258L13.3516 91.0625V87.5742C13.3516 84.1043 13.3516 84.0676 12.8926 83.627C12.4153 83.1312 11.9563 83.0578 11.277 83.3699C10.5243 83.7187 10.4141 84.2512 10.4141 87.7578V91.0625H6.90747H3.41919L3.47427 83.8473L3.52935 76.6504L4.02505 75.6039C4.57583 74.4105 5.76919 73.052 6.83403 72.3727C7.45825 71.9687 17.2805 68.5355 17.9047 68.4988C18.07 68.4805 18.125 69.6004 18.125 73.4926ZM49.1891 70.243C54.9356 72.1523 55.8536 72.6297 56.9918 74.2086C58.2954 76.0078 58.3321 76.2832 58.3321 84.0859V91.0625H54.8438H51.3555V87.5742C51.3555 84.1043 51.3555 84.0676 50.8965 83.627C50.309 83.0211 49.4645 83.0211 48.877 83.627C48.418 84.0676 48.418 84.1043 48.418 87.5742V91.0625H43.3876H38.3387L38.1551 90.0895C38.045 89.5754 37.6227 87.1703 37.2004 84.7652L36.4477 80.3773L36.7415 78.7066C36.9067 77.7703 37.0903 76.834 37.127 76.6137C37.2188 76.2465 37.4024 76.3383 39.5504 77.8621C41.5883 79.3125 41.9555 79.5145 42.4512 79.4227C43.6262 79.184 43.6446 79.0738 43.6446 73.5109C43.6446 70.7387 43.6997 68.4805 43.7731 68.4805C43.8649 68.4805 46.2883 69.2699 49.1891 70.243ZM32.7391 73.0152C33.6754 73.6945 34.4649 74.3922 34.4649 74.5391C34.4649 74.8328 34.1711 76.6137 34.0059 77.4215C33.9141 77.8437 33.8774 77.8437 30.9032 77.8437H27.8922L27.6903 76.5953C27.2497 74.0066 27.0844 74.4105 29.0856 73.0152C30.0586 72.3359 30.8848 71.7852 30.9215 71.7852C30.9583 71.7852 31.7844 72.3359 32.7391 73.0152ZM33.6387 81.3687C33.6938 81.6992 34.0977 83.9941 34.5383 86.4727L35.3278 90.9707L31.0133 91.0258C28.645 91.0441 26.6622 91.0258 26.6071 90.9891C26.5704 90.934 26.9192 88.6207 27.4149 85.8484L28.2778 80.7812H30.9032H33.5286L33.6387 81.3687Z" fill="#F0F9FF"/>
<path id="Vector_4" d="M63.7113 36.5352C63.234 36.7371 62.8117 37.343 62.6465 38.1141C62.5547 38.5914 62.3895 38.7566 61.6734 39.0137C60.8473 39.3441 60.8105 39.3441 60.1496 38.9586C58.9379 38.2609 58.6258 38.3711 56.7348 40.2621C54.8437 42.1531 54.7152 42.4652 55.4129 43.6953C55.7984 44.3746 55.7984 44.4113 55.4863 45.2191C55.2109 45.9535 55.0824 46.0637 54.3848 46.2473C53.0445 46.5777 52.8242 47.0551 52.8242 49.5152C52.8242 52.1223 53.0262 52.5996 54.2379 52.9301C54.9539 53.1137 55.1375 53.2605 55.468 53.9398L55.8535 54.7293L55.4312 55.4453C54.7336 56.6754 54.8437 56.9508 56.7164 58.8602C58.2035 60.384 58.4789 60.5859 59.0297 60.5859C59.3785 60.5859 59.9293 60.4207 60.2598 60.2188C60.8473 59.8516 60.8656 59.8516 61.6734 60.2004C62.4078 60.5125 62.518 60.641 62.7199 61.3754C63.032 62.6605 63.3441 62.7891 66.0613 62.7891C68.7418 62.7891 69.0172 62.6789 69.4027 61.3387C69.6047 60.6043 69.7332 60.4758 70.4859 60.1637C71.3488 59.8148 71.3488 59.8148 71.8996 60.2004C72.9645 60.9715 73.4785 60.7695 75.3695 58.8785C77.2422 57.0059 77.3707 56.6754 76.673 55.4637C76.3059 54.7844 76.3059 54.7844 76.6547 53.9582C76.9852 53.2238 77.1137 53.0953 77.7012 52.9852C78.0867 52.9117 78.5824 52.6547 78.8211 52.416C79.2434 51.9938 79.2617 51.8469 79.2617 49.7539C79.2617 46.9266 79.1332 46.6328 77.7012 46.2473C77.0586 46.082 76.9117 45.9535 76.618 45.2375C76.2875 44.448 76.2875 44.4297 76.673 43.7688C77.3891 42.557 77.2605 42.1715 75.3512 40.2621C73.4602 38.3711 73.148 38.2609 71.9363 38.9586C71.2754 39.3441 71.2387 39.3441 70.4125 39.0137C69.6598 38.7383 69.5496 38.6281 69.4395 38.0223C69.2926 37.1961 68.9988 36.7922 68.3562 36.5352C67.7504 36.3148 64.2805 36.3148 63.7113 36.5352ZM66.8324 39.9316C67.0711 40.7027 67.6402 41.2719 68.3195 41.4188C68.6316 41.4738 69.366 41.7676 69.9352 42.0613C71.1652 42.6855 71.459 42.7039 72.1934 42.2449C72.7441 41.9145 72.7441 41.9145 73.2398 42.3551L73.7355 42.8141L73.35 43.6035L72.9645 44.393L73.4234 45.2926C73.6805 45.7699 74.0293 46.5961 74.1945 47.1102C74.5434 48.175 74.9289 48.6156 75.7 48.8176C76.1406 48.9277 76.2508 49.0563 76.2875 49.5887C76.3426 50.2129 76.3059 50.2496 75.6082 50.4699C74.8922 50.6719 74.3047 51.241 74.3047 51.7367C74.3047 51.8652 74.0109 52.618 73.6437 53.4258L72.9828 54.8762L73.3684 55.6656L73.7539 56.4551L73.3133 56.8957C72.8727 57.318 72.8359 57.318 72.3953 57.0426C71.716 56.602 71 56.657 69.6781 57.2813C69.0539 57.575 68.393 57.832 68.2277 57.832C67.6953 57.832 67.016 58.5297 66.8875 59.209C66.7773 59.8148 66.7223 59.8516 66.0613 59.8516C65.4004 59.8516 65.3453 59.8148 65.2352 59.209C65.1066 58.5664 64.3906 57.832 63.8582 57.832C63.693 57.832 63.032 57.575 62.4078 57.2813C61.1227 56.6754 60.4984 56.602 59.8008 57.0059C59.3785 57.2262 59.3051 57.2078 58.8461 56.7855L58.3687 56.3266L58.7176 55.7391C59.1582 55.0047 59.1582 54.7844 58.6809 53.8848C58.4605 53.4809 58.1301 52.7098 57.9465 52.159C57.5059 50.9105 57.1937 50.5617 56.3859 50.3965C55.7801 50.2863 55.7434 50.2496 55.7984 49.6254C55.8535 49.0563 55.9453 48.9461 56.5512 48.7441C57.2855 48.4871 57.7629 48.0281 57.7812 47.5508C57.7812 47.3855 58.075 46.6695 58.4238 45.9168C58.7727 45.1824 59.0664 44.4848 59.0664 44.3746C59.0664 44.2461 58.9012 43.8605 58.7176 43.5117L58.3687 42.8691L58.8277 42.3734L59.2867 41.8961L59.8742 42.2449C60.6086 42.7039 60.9207 42.6855 61.9672 42.1531C62.4445 41.9145 63.2707 41.584 63.8031 41.4004C64.7945 41.0883 64.8863 40.9965 65.3637 39.6012C65.4555 39.3441 65.6391 39.2891 66.0797 39.3258C66.5387 39.3625 66.6855 39.491 66.8324 39.9316Z" fill="#F0F9FF"/>
<path id="Vector_5" d="M64.556 43.5668C62.6833 44.0992 61.2146 45.3477 60.4251 47.0918C59.3603 49.3867 59.7825 51.8469 61.545 53.7563C62.922 55.2434 63.9868 55.7207 66.0431 55.7207C67.3466 55.7207 67.7688 55.6473 68.6317 55.2434C69.9536 54.6191 71.0919 53.4809 71.7161 52.159C72.3587 50.8004 72.3771 48.4871 71.7712 47.1285C70.5778 44.4664 67.2364 42.8141 64.556 43.5668ZM67.6036 46.743C69.9353 47.8445 69.8251 51.443 67.4384 52.5262C66.4286 52.9852 65.5657 52.9668 64.5743 52.4527C62.5915 51.4613 62.1692 48.8727 63.7481 47.3488C64.8313 46.2656 66.1899 46.0637 67.6036 46.743Z" fill="#F0F9FF"/>
</g>
</g>
<defs>
<clipPath id="clip0_60_660">
<rect width="94" height="94" fill="white" transform="translate(0.5)"/>
</clipPath>
</defs>
</svg>
