<svg width="99" height="94" viewBox="0 0 99 94" fill="none" xmlns="http://www.w3.org/2000/svg">
<path d="M59 2V9C59 10.1046 58.1046 11 57 11H42C40.8954 11 40 10.1046 40 9V2H59Z" stroke="#00A1E9" stroke-width="4"/>
<rect x="23.5" y="3" width="52" height="88" rx="5" stroke="#0069A8" stroke-width="6"/>
<path d="M38.8684 64.9596C38.8684 64.9596 35.6842 65.5778 35.6842 61.9779M32.5 47.6577C32.5 47.6577 35.6842 47.6577 35.6842 50.5989M35.6842 61.9779C35.6842 58.378 35.6842 53.1378 35.6842 50.5989M35.6842 61.9779V50.5989" stroke="#00BCFF" stroke-width="3" stroke-linecap="round"/>
<path d="M38.8684 30.0404C38.8684 30.0404 35.6842 29.4222 35.6842 33.0221M32.5 47.6577C32.5 47.6577 35.6842 47.3423 35.6842 44.4011M35.6842 33.0221C35.6842 36.622 35.6842 41.8622 35.6842 44.4011M35.6842 33.0221V44.4011" stroke="#00A1E9" stroke-width="3" stroke-linecap="round"/>
<path d="M59.1316 64.9596C59.1316 64.9596 62.3158 65.5778 62.3158 61.9779M65.5 47.6577C65.5 47.6577 62.3158 47.6577 62.3158 50.5989M62.3158 61.9779C62.3158 58.378 62.3158 53.1378 62.3158 50.5989M62.3158 61.9779V50.5989" stroke="#00BCFF" stroke-width="3" stroke-linecap="round"/>
<path d="M59.1316 30.0404C59.1316 30.0404 62.3158 29.4222 62.3158 33.0221M65.5 47.6577C65.5 47.6577 62.3158 47.3423 62.3158 44.4011M62.3158 33.0221C62.3158 36.622 62.3158 41.8622 62.3158 44.4011M62.3158 33.0221V44.4011" stroke="#00A1E9" stroke-width="3" stroke-linecap="round"/>
<path d="M42.1586 41.1323C42.1586 38.384 44.2513 36.0878 46.9878 35.8335L46.3184 39.0394C46.206 39.5773 46.1494 40.1253 46.1494 40.6747V54.1506C46.1494 56.6464 44.5359 58.8559 42.1586 59.6156V58.3402V41.1323Z" fill="#00598A"/>
<path d="M42.4436 48.7754H42.1586C42.3189 46.2655 44.4013 44.3118 46.9163 44.3118H52.1357C52.1357 46.777 50.1373 48.7754 47.6721 48.7754H42.4436Z" fill="#00BCFF"/>
<path d="M45.3515 39.8482C45.1234 39.8482 44.8957 39.8367 44.6676 39.8365C44.2461 39.836 43.5229 39.8823 43.0138 40.1671C42.2542 40.5918 42.1586 41.1235 42.1586 41.1235C42.4822 37.8662 45.2224 35.3847 48.4958 35.3847H55.8415C55.8415 37.8498 53.8431 39.8482 51.3779 39.8482H45.3515Z" fill="#00A1E9"/>
<path d="M40.5 82H57.5" stroke="#00A1E9" stroke-width="4" stroke-linecap="round"/>
</svg>
