<svg width="37" height="43" viewBox="0 0 37 43" fill="none" xmlns="http://www.w3.org/2000/svg">
<g id="github_icon" clip-path="url(#clip0_60_1037)">
<path id="Vector" d="M32.6429 3.4751H4.35714C2.22768 3.4751 0.5 5.23877 0.5 7.4126V36.2876C0.5 38.4614 2.22768 40.2251 4.35714 40.2251H32.6429C34.7723 40.2251 36.5 38.4614 36.5 36.2876V7.4126C36.5 5.23877 34.7723 3.4751 32.6429 3.4751ZM22.783 34.9505C22.108 35.0735 21.8589 34.647 21.8589 34.2942C21.8589 33.8513 21.875 31.5872 21.875 29.7579C21.875 28.4782 21.4571 27.6661 20.967 27.2396C23.9402 26.9032 27.0741 26.4849 27.0741 21.2431C27.0741 19.7501 26.5518 19.0036 25.7 18.0438C25.8366 17.6911 26.2946 16.2392 25.5634 14.3524C24.4464 13.9997 21.8911 15.8208 21.8911 15.8208C20.8304 15.5173 19.6812 15.3614 18.5482 15.3614C17.4152 15.3614 16.2661 15.5173 15.2054 15.8208C15.2054 15.8208 12.65 13.9997 11.533 14.3524C10.8018 16.231 11.2518 17.6829 11.3964 18.0438C10.5446 19.0036 10.1429 19.7501 10.1429 21.2431C10.1429 26.4603 13.1402 26.9032 16.1134 27.2396C15.7277 27.5923 15.3821 28.1993 15.2616 29.0688C14.4982 29.4216 12.5455 30.0286 11.3804 27.9286C10.6491 26.6325 9.33125 26.5259 9.33125 26.5259C8.02946 26.5095 9.24286 27.3626 9.24286 27.3626C10.1107 27.7728 10.7214 29.3478 10.7214 29.3478C11.5009 31.7841 15.2295 30.9638 15.2295 30.9638C15.2295 32.104 15.2455 33.9579 15.2455 34.2942C15.2455 34.647 15.0045 35.0735 14.3214 34.9505C9.01786 33.1376 5.30536 27.986 5.30536 21.9649C5.30536 14.4345 10.9464 8.71689 18.3232 8.71689C25.7 8.71689 31.6786 14.4345 31.6786 21.9649C31.6866 27.986 28.0866 33.1458 22.783 34.9505ZM14.9 29.9384C14.7473 29.9712 14.6027 29.9056 14.5866 29.7989C14.5705 29.6759 14.675 29.5692 14.8277 29.5364C14.9804 29.52 15.125 29.5856 15.1411 29.6923C15.1652 29.7989 15.0607 29.9056 14.9 29.9384ZM14.1366 29.8646C14.1366 29.9712 14.0161 30.0614 13.8554 30.0614C13.6786 30.0778 13.558 29.9876 13.558 29.8646C13.558 29.7579 13.6786 29.6677 13.8393 29.6677C13.992 29.6513 14.1366 29.7415 14.1366 29.8646ZM13.0357 29.7743C13.0036 29.881 12.8429 29.9302 12.7062 29.881C12.5536 29.8481 12.4491 29.7251 12.4813 29.6185C12.5134 29.5118 12.6741 29.4626 12.8107 29.4954C12.9714 29.5446 13.0759 29.6677 13.0357 29.7743ZM12.0473 29.3313C11.975 29.4216 11.8223 29.4052 11.7018 29.2821C11.5812 29.1755 11.5491 29.0196 11.6295 28.9458C11.7018 28.8556 11.8545 28.872 11.975 28.995C12.0795 29.1017 12.1196 29.2657 12.0473 29.3313ZM11.3161 28.5849C11.2438 28.6341 11.1071 28.5849 11.0187 28.4618C10.9304 28.3388 10.9304 28.1993 11.0187 28.1419C11.1071 28.0681 11.2438 28.1255 11.3161 28.2485C11.4045 28.3716 11.4045 28.5192 11.3161 28.5849ZM10.7938 27.7892C10.7214 27.863 10.6009 27.822 10.5125 27.7399C10.4241 27.6333 10.408 27.5103 10.4804 27.4528C10.5527 27.379 10.6732 27.42 10.7616 27.5021C10.85 27.6087 10.8661 27.7317 10.7938 27.7892ZM10.2554 27.1821C10.2232 27.256 10.1187 27.2724 10.0304 27.2149C9.92589 27.1657 9.87768 27.0755 9.90982 27.0017C9.94196 26.9524 10.0304 26.9278 10.1348 26.9688C10.2393 27.0263 10.2875 27.1165 10.2554 27.1821Z" fill="#F0F9FF"/>
</g>
<defs>
<clipPath id="clip0_60_1037">
<rect width="36" height="42" fill="white" transform="translate(0.5 0.850098)"/>
</clipPath>
</defs>
</svg>
