<svg width="68" height="65" viewBox="0 0 68 65" fill="none" xmlns="http://www.w3.org/2000/svg">
<path d="M14.3508 62.9296C14.3508 62.9296 8.17539 64.007 8.17539 57.7329M1.99995 32.7748C1.99995 32.7748 8.17539 32.7748 8.17539 37.9009M8.17539 57.7329C8.17539 51.4588 8.17539 42.3259 8.17539 37.9009M8.17539 57.7329L8.17539 37.9009" stroke="#00BCFF" stroke-width="3" stroke-linecap="round"/>
<path d="M14.3508 2.07042C14.3508 2.07042 8.17539 0.992996 8.17539 7.26709M1.99995 32.7748C1.99995 32.7748 8.17539 32.2252 8.17539 27.0991M8.17539 7.26709C8.17539 13.5412 8.17539 22.6741 8.17539 27.0991M8.17539 7.26709L8.17539 27.0991" stroke="#00A1E9" stroke-width="3" stroke-linecap="round"/>
<path d="M53.6492 62.9296C53.6492 62.9296 59.8246 64.007 59.8246 57.7329M66 32.7748C66 32.7748 59.8246 32.7748 59.8246 37.9009M59.8246 57.7329C59.8246 51.4588 59.8246 42.3259 59.8246 37.9009M59.8246 57.7329V37.9009" stroke="#00BCFF" stroke-width="3" stroke-linecap="round"/>
<path d="M53.6492 2.07042C53.6492 2.07042 59.8246 0.992996 59.8246 7.26709M66 32.7748C66 32.7748 59.8246 32.2252 59.8246 27.0991M59.8246 7.26709C59.8246 13.5412 59.8246 22.6741 59.8246 27.0991M59.8246 7.26709V27.0991" stroke="#00A1E9" stroke-width="3" stroke-linecap="round"/>
<path d="M20.7317 20.3086C20.7317 16.1484 23.9202 12.6825 28.066 12.3363L30.0975 12.1667L28.6792 18.2705C28.5412 18.8642 28.4715 19.4717 28.4715 20.0813L28.4715 45.3668C28.4715 48.9346 26.1089 52.0712 22.6797 53.056L20.7317 53.6154V51.3927L20.7317 20.3086Z" fill="#00598A"/>
<path d="M21.2845 34.7227H20.7317L20.7563 34.3762C21.0539 30.1886 24.538 26.9433 28.7362 26.9433L40.0813 26.9433C40.0813 31.2397 36.5983 34.7227 32.3019 34.7227H21.2845Z" fill="#00BCFF"/>
<path d="M26.5679 19.164C26.3628 19.164 26.1579 19.1556 25.9529 19.1491C25.2591 19.1274 23.5423 19.1407 22.3902 19.7196C20.9171 20.46 20.7317 21.3866 20.7317 21.3866L21.0502 18.5056C21.4983 14.4522 24.9236 11.3846 29.0017 11.3846L47.2683 11.3846C47.2683 15.681 43.7853 19.164 39.4889 19.164L26.5679 19.164Z" fill="#00A1E9"/>
</svg>
