<svg width="43" height="43" viewBox="0 0 43 43" fill="none" xmlns="http://www.w3.org/2000/svg">
<g id="instagram_icon" clip-path="url(#clip0_60_1029)">
<path id="Vector" fill-rule="evenodd" clip-rule="evenodd" d="M37.3686 0.850098C40.2007 0.850098 42.5 3.14943 42.5 5.98148V37.7187C42.5 40.5508 40.2007 42.8501 37.3686 42.8501H5.63138C2.79934 42.8501 0.5 40.5508 0.5 37.7187V5.98148C0.5 3.14943 2.79925 0.850098 5.63138 0.850098L37.3686 0.850098ZM21.5 7.49463C17.6013 7.49463 17.1124 7.51112 15.5813 7.58101C14.0533 7.65073 13.0098 7.89338 12.0966 8.24833C11.1526 8.61518 10.352 9.10605 9.55395 9.90405C8.75587 10.7021 8.265 11.5028 7.89815 12.4467C7.54328 13.3599 7.30064 14.4034 7.23083 15.9314C7.16102 17.4625 7.14453 17.9514 7.14453 21.8501C7.14453 25.7488 7.16102 26.2377 7.23083 27.7688C7.30064 29.2968 7.54328 30.3403 7.89815 31.2535C8.265 32.1974 8.75587 32.9981 9.55395 33.7961C10.352 34.5942 11.1526 35.0851 12.0966 35.4519C13.0098 35.8068 14.0533 36.0495 15.5813 36.1192C17.1124 36.1891 17.6013 36.2056 21.5 36.2056C25.3987 36.2056 25.8876 36.1891 27.4187 36.1192C28.9467 36.0495 29.9902 35.8068 30.9034 35.4519C31.8473 35.0851 32.648 34.5942 33.446 33.7961C34.2441 32.9981 34.735 32.1974 35.1018 31.2535C35.4567 30.3403 35.6994 29.2968 35.7691 27.7688C35.839 26.2377 35.8555 25.7488 35.8555 21.8501C35.8555 17.9514 35.839 17.4625 35.7691 15.9314C35.6994 14.4034 35.4567 13.3599 35.1018 12.4467C34.735 11.5028 34.2441 10.7021 33.446 9.90405C32.648 9.10605 31.8473 8.61518 30.9034 8.24833C29.9902 7.89338 28.9467 7.65073 27.4187 7.58101C25.8876 7.51112 25.3987 7.49463 21.5 7.49463ZM21.5 10.0812C25.3331 10.0812 25.7871 10.0958 27.3008 10.1649C28.7005 10.2288 29.4606 10.4627 29.9664 10.6591C30.6366 10.9196 31.1147 11.2307 31.6171 11.733C32.1194 12.2354 32.4305 12.7136 32.6909 13.3837C32.8875 13.8895 33.1214 14.6496 33.1852 16.0493C33.2543 17.563 33.2689 18.017 33.2689 21.8501C33.2689 25.6832 33.2543 26.1372 33.1852 27.6509C33.1214 29.0506 32.8875 29.8107 32.6909 30.3165C32.4305 30.9867 32.1194 31.4648 31.6171 31.9672C31.1147 32.4695 30.6366 32.7806 29.9664 33.041C29.4606 33.2376 28.7005 33.4715 27.3008 33.5353C25.7874 33.6044 25.3333 33.619 21.5 33.619C17.6667 33.619 17.2127 33.6044 15.6992 33.5353C14.2995 33.4715 13.5394 33.2376 13.0336 33.041C12.3634 32.7806 11.8853 32.4695 11.3829 31.9672C10.8806 31.4648 10.5694 30.9867 10.3091 30.3165C10.1125 29.8107 9.87863 29.0506 9.81473 27.6509C9.74566 26.1372 9.73106 25.6832 9.73106 21.8501C9.73106 18.017 9.74566 17.563 9.81473 16.0493C9.87863 14.6496 10.1125 13.8895 10.3091 13.3837C10.5694 12.7136 10.8806 12.2354 11.3829 11.733C11.8853 11.2307 12.3634 10.9196 13.0336 10.6591C13.5394 10.4627 14.2995 10.2288 15.6992 10.1649C17.2129 10.0958 17.6669 10.0812 21.5 10.0812ZM21.5 14.4784C17.4287 14.4784 14.1283 17.7788 14.1283 21.8501C14.1283 25.9214 17.4287 29.2218 21.5 29.2218C25.5713 29.2218 28.8717 25.9214 28.8717 21.8501C28.8717 17.7788 25.5713 14.4784 21.5 14.4784ZM21.5 26.6352C18.8572 26.6352 16.7149 24.4929 16.7149 21.8501C16.7149 19.2073 18.8572 17.065 21.5 17.065C24.1428 17.065 26.2851 19.2073 26.2851 21.8501C26.2851 24.4929 24.1428 26.6352 21.5 26.6352ZM30.8857 14.1871C30.8857 15.1385 30.1143 15.9097 29.163 15.9097C28.2116 15.9097 27.4404 15.1385 27.4404 14.1871C27.4404 13.2358 28.2116 12.4645 29.163 12.4645C30.1143 12.4645 30.8857 13.2358 30.8857 14.1871Z" fill="#F0F9FF"/>
</g>
<defs>
<clipPath id="clip0_60_1029">
<rect width="42" height="42" fill="white" transform="translate(0.5 0.850098)"/>
</clipPath>
</defs>
</svg>
