<svg width="43" height="43" viewBox="0 0 43 43" fill="none" xmlns="http://www.w3.org/2000/svg">
<g id="linkend_icon" clip-path="url(#clip0_60_1035)">
<path id="Vector" d="M37.4141 1.83447H5.42188C3.15666 1.83447 1.32031 3.67082 1.32031 5.93604V37.9282C1.32031 40.1934 3.15666 42.0298 5.42188 42.0298H37.4141C39.6793 42.0298 41.5156 40.1934 41.5156 37.9282V5.93604C41.5156 3.67082 39.6793 1.83447 37.4141 1.83447ZM13.7846 34.3768H8.38771V17.0145H13.7846V34.3768ZM11.0506 14.8842C9.34633 14.8842 8.24572 13.6771 8.24572 12.1858C8.24572 10.6591 9.38193 9.48725 11.1217 9.48725C12.8614 9.48725 13.9266 10.659 13.9621 12.1858C13.9621 13.6771 12.8614 14.8842 11.0506 14.8842ZM34.5902 34.3768H29.1934V24.7548C29.1934 22.5179 28.4123 20.9911 26.4595 20.9911C24.9682 20.9911 24.0805 22.0209 23.69 23.015C23.5479 23.3701 23.5124 23.8672 23.5124 24.3642V34.3768H18.1156V22.5534C18.1156 20.3876 18.0446 18.5767 17.9736 17.0145H22.6603L22.9088 19.429H23.0154C23.7255 18.2928 25.4652 16.6241 28.3767 16.6241C31.9272 16.6241 34.5902 19.003 34.5902 24.1157V34.3768Z" fill="#F0F9FF"/>
</g>
<defs>
<clipPath id="clip0_60_1035">
<rect width="42" height="42" fill="white" transform="translate(0.5 0.850098)"/>
</clipPath>
</defs>
</svg>
