<svg width="242" height="56" viewBox="0 0 242 56" fill="none" xmlns="http://www.w3.org/2000/svg">
<path d="M12.4915 53.653C12.4915 53.653 7.24574 54.5664 7.24574 49.2475M2.00003 28.0893C2.00003 28.0893 7.24574 28.0893 7.24574 32.435M7.24574 49.2475C7.24574 43.9287 7.24574 36.1863 7.24574 32.435M7.24574 49.2475L7.24574 32.435" stroke="#00BCFF" stroke-width="3" stroke-linecap="round"/>
<path d="M12.4915 2.05969C12.4915 2.05969 7.24574 1.14631 7.24574 6.46517M2.00003 28.0893C2.00003 28.0893 7.24574 27.6234 7.24574 23.2777M7.24574 6.46517C7.24574 11.784 7.24574 19.5264 7.24574 23.2777M7.24574 6.46517L7.24574 23.2777" stroke="#00A1E9" stroke-width="3" stroke-linecap="round"/>
<path d="M45.8732 53.653C45.8732 53.653 51.1189 54.5664 51.1189 49.2475M56.3646 28.0893C56.3646 28.0893 51.1189 28.0893 51.1189 32.435M51.1189 49.2475C51.1189 43.9287 51.1189 36.1863 51.1189 32.435M51.1189 49.2475V32.435" stroke="#00BCFF" stroke-width="3" stroke-linecap="round"/>
<path d="M45.8732 2.05969C45.8732 2.05969 51.1189 1.14631 51.1189 6.46517M56.3646 28.0893C56.3646 28.0893 51.1189 27.6234 51.1189 23.2777M51.1189 6.46517C51.1189 11.784 51.1189 19.5264 51.1189 23.2777M51.1189 6.46517V23.2777" stroke="#00A1E9" stroke-width="3" stroke-linecap="round"/>
<path d="M17.9116 18.6428C17.9116 14.4821 21.1009 11.016 25.2473 10.6705L25.8674 10.6188L24.6946 15.6556C24.5561 16.2504 24.4862 16.8591 24.4862 17.4698L24.4862 37.8433C24.4862 41.4128 22.1215 44.5503 18.6903 45.5337L17.9116 45.7569V43.8726L17.9116 18.6428Z" fill="#00598A"/>
<path d="M18.3812 29.7406H17.9116C18.1762 26.0249 21.2678 23.1457 24.9929 23.1457L34.3481 23.1457C34.3481 26.7879 31.3954 29.7406 27.7531 29.7406L18.3812 29.7406Z" fill="#00BCFF"/>
<path d="M22.9149 16.5507C22.7102 16.5507 22.5065 16.5423 22.3019 16.5369C21.6863 16.5206 20.2751 16.543 19.3205 17.0218C18.0691 17.6494 17.9116 18.435 17.9116 18.435L18.0623 17.075C18.5112 13.0224 21.9362 9.95579 26.0136 9.95579L40.4531 9.95579C40.4531 13.5981 37.5004 16.5507 33.8581 16.5507L22.9149 16.5507Z" fill="#00A1E9"/>
<path d="M170.878 34.1414C169.487 34.1414 168.212 33.9717 167.056 33.6323C165.921 33.2928 164.904 32.7943 164.005 32.1366C163.589 31.8254 163.193 31.4833 162.816 31.1104C162.069 30.3712 162.13 29.1837 162.827 28.3972V28.3972C163.762 27.3431 165.405 27.4633 166.462 28.3947C166.898 28.7783 167.331 29.0816 167.763 29.3043C168.812 29.8135 169.947 30.0681 171.168 30.0681C171.831 30.0681 172.42 29.9832 172.934 29.8135C173.47 29.6225 173.887 29.3574 174.187 29.0179C174.487 28.6785 174.637 28.2754 174.637 27.8086C174.637 27.4692 174.562 27.1616 174.412 26.8858C174.262 26.5887 174.048 26.3341 173.769 26.122C173.491 25.8886 173.159 25.6871 172.774 25.5174C172.388 25.3264 171.96 25.1673 171.489 25.04C171.018 24.8915 170.504 24.7748 169.947 24.69C168.748 24.4141 167.699 24.0853 166.799 23.7034C165.9 23.3003 165.15 22.8124 164.551 22.2396C163.951 21.6455 163.501 20.9772 163.202 20.2347C162.923 19.4922 162.784 18.6541 162.784 17.7207C162.784 16.766 162.998 15.8855 163.427 15.0793C163.855 14.2519 164.444 13.5412 165.193 12.9472C165.964 12.3532 166.842 11.897 167.827 11.5788C168.833 11.2606 169.893 11.1014 171.007 11.1014C172.377 11.1014 173.577 11.2606 174.604 11.5788C175.632 11.8758 176.521 12.3107 177.27 12.8835C177.566 13.1031 177.843 13.3414 178.1 13.5984C178.832 14.3276 178.665 15.4953 177.92 16.2102L177.668 16.4513C176.858 17.2287 175.566 17.0913 174.669 16.4159V16.4159C174.155 16.0128 173.587 15.7158 172.966 15.5249C172.367 15.3127 171.746 15.2066 171.103 15.2066C170.397 15.2066 169.786 15.3021 169.272 15.493C168.759 15.6628 168.352 15.9174 168.052 16.2568C167.774 16.5962 167.634 17.0099 167.634 17.4979C167.634 17.8798 167.731 18.2192 167.923 18.5162C168.116 18.8133 168.394 19.0785 168.759 19.3118C169.123 19.524 169.562 19.7149 170.075 19.8846C170.589 20.0544 171.157 20.2029 171.778 20.3302C172.956 20.5635 174.016 20.8712 174.958 21.253C175.9 21.6349 176.703 22.1017 177.367 22.6533C178.052 23.1837 178.577 23.8201 178.941 24.5627C179.305 25.284 179.487 26.1008 179.487 27.013C179.487 28.5193 179.123 29.8029 178.395 30.8637C177.667 31.9244 176.66 32.7412 175.375 33.314C174.09 33.8656 172.592 34.1414 170.878 34.1414Z" fill="#00BCFF"/>
<path d="M148.842 34.0141C147.021 34.0141 145.394 33.6429 143.959 32.9003C142.546 32.1366 141.432 31.097 140.619 29.7817C139.805 28.4451 139.398 26.9388 139.398 25.2628V13.9402C139.398 12.6009 140.484 11.5151 141.823 11.5151V11.5151C143.163 11.5151 144.248 12.6009 144.248 13.9402V24.9764C144.248 25.8674 144.452 26.6736 144.859 27.3949C145.266 28.095 145.812 28.6572 146.497 29.0815C147.203 29.5059 147.985 29.718 148.842 29.718C149.72 29.718 150.512 29.5059 151.218 29.0815C151.947 28.6572 152.514 28.095 152.921 27.3949C153.349 26.6736 153.563 25.8674 153.563 24.9764V13.8599C153.563 12.5649 154.613 11.5151 155.908 11.5151V11.5151C157.203 11.5151 158.253 12.5649 158.253 13.8599V25.2628C158.253 26.9388 157.846 28.4451 157.032 29.7817C156.219 31.097 155.094 32.1366 153.66 32.9003C152.246 33.6429 150.64 34.0141 148.842 34.0141Z" fill="#00BCFF"/>
<path d="M127.306 34.1414C125.658 34.1414 124.137 33.8656 122.745 33.314C121.375 32.7412 120.176 31.9456 119.148 30.9273C118.141 29.8877 117.36 28.6678 116.803 27.2676C116.246 25.8462 115.968 24.2975 115.968 22.6214C115.968 20.9878 116.257 19.4815 116.835 18.1025C117.413 16.7023 118.227 15.493 119.276 14.4747C120.326 13.4351 121.557 12.6289 122.97 12.0561C124.383 11.4833 125.915 11.1969 127.563 11.1969C128.634 11.1969 129.683 11.3454 130.711 11.6424C131.76 11.9182 132.713 12.3319 133.57 12.8835C133.85 13.0594 134.117 13.2461 134.37 13.4435C135.29 14.159 135.237 15.4935 134.452 16.3544L134.196 16.6348C133.434 17.4702 132.142 17.4762 131.193 16.8614V16.8614C130.658 16.4796 130.079 16.1931 129.458 16.0022C128.859 15.79 128.216 15.684 127.531 15.684C126.61 15.684 125.743 15.8537 124.929 16.1931C124.137 16.5326 123.441 17.0099 122.842 17.6252C122.242 18.2192 121.76 18.9512 121.396 19.821C121.054 20.6696 120.882 21.6137 120.882 22.6533C120.882 23.714 121.054 24.6793 121.396 25.5492C121.739 26.3978 122.221 27.1297 122.842 27.745C123.463 28.339 124.201 28.8057 125.058 29.1452C125.936 29.4634 126.9 29.6225 127.949 29.6225C128.634 29.6225 129.298 29.5271 129.94 29.3361C130.583 29.1452 131.172 28.88 131.707 28.5405V28.5405C132.529 28.0392 133.681 28.1513 134.194 28.9662L134.659 29.704C135.174 30.5221 135.091 31.604 134.288 32.1419C134.027 32.3162 133.745 32.4841 133.441 32.6457C132.585 33.1125 131.621 33.4838 130.551 33.7596C129.48 34.0141 128.398 34.1414 127.306 34.1414Z" fill="#00BCFF"/>
<path d="M101.65 34.1414C100.001 34.1414 98.4808 33.855 97.089 33.2822C95.6971 32.7094 94.4765 31.9138 93.4272 30.8955C92.3994 29.8559 91.6071 28.636 91.0503 27.2358C90.4936 25.8144 90.2152 24.2762 90.2152 22.6214C90.2152 20.9454 90.4936 19.4179 91.0503 18.0389C91.6071 16.6387 92.3994 15.4188 93.4272 14.3792C94.4765 13.3397 95.6971 12.5335 97.089 11.9607C98.4808 11.3878 100.001 11.1014 101.65 11.1014C103.32 11.1014 104.841 11.3878 106.211 11.9607C107.603 12.5335 108.813 13.3397 109.841 14.3792C110.89 15.4188 111.693 16.6387 112.25 18.0389C112.807 19.4391 113.085 20.9666 113.085 22.6214C113.085 24.2762 112.807 25.8038 112.25 27.204C111.693 28.6042 110.89 29.8241 109.841 30.8637C108.813 31.9032 107.603 32.7094 106.211 33.2822C104.841 33.855 103.32 34.1414 101.65 34.1414ZM101.65 29.6225C102.592 29.6225 103.46 29.4528 104.252 29.1134C105.066 28.7739 105.761 28.286 106.34 27.6495C106.918 27.013 107.367 26.2705 107.689 25.4219C108.031 24.5733 108.203 23.6398 108.203 22.6214C108.203 21.6031 108.031 20.6696 107.689 19.821C107.367 18.9724 106.918 18.2404 106.34 17.6252C105.761 16.9887 105.066 16.5008 104.252 16.1613C103.46 15.8007 102.592 15.6203 101.65 15.6203C100.708 15.6203 99.8406 15.8007 99.0483 16.1613C98.256 16.5008 97.5601 16.9887 96.9605 17.6252C96.3609 18.2404 95.9005 18.9724 95.5793 19.821C95.2795 20.6696 95.1296 21.6031 95.1296 22.6214C95.1296 23.6398 95.2795 24.5733 95.5793 25.4219C95.9005 26.2705 96.3609 27.013 96.9605 27.6495C97.5601 28.286 98.256 28.7739 99.0483 29.1134C99.8406 29.4528 100.708 29.6225 101.65 29.6225Z" fill="#00BCFF"/>
<path d="M72.2762 33.8232V13.956C72.2762 12.6255 73.3548 11.5469 74.6853 11.5469V11.5469H77.0943V29.0051C77.0943 31.6661 74.9372 33.8232 72.2762 33.8232V33.8232ZM74.4925 24.9763V20.8711H86.1201V20.8711C86.1201 23.1384 84.2822 24.9763 82.0149 24.9763H74.4925ZM74.4925 15.8431V11.5469H87.4692V11.5469C87.4692 13.9196 85.5457 15.8431 83.173 15.8431H74.4925Z" fill="#00BCFF"/>
<path d="M185.083 33.8232V11.5469H193.563C195.104 11.5469 196.507 11.8227 197.77 12.3743C199.055 12.9047 200.169 13.6685 201.111 14.6656C202.053 15.6627 202.781 16.8402 203.295 18.198C203.809 19.5558 204.066 21.0515 204.066 22.6851C204.066 24.3186 203.809 25.8249 203.295 27.204C202.781 28.5617 202.053 29.7392 201.111 30.7363C200.19 31.7122 199.087 32.476 197.802 33.0276C196.518 33.558 195.104 33.8232 193.563 33.8232H185.083ZM187.588 31.8501L187.299 31.4046H193.402C194.58 31.4046 195.661 31.2031 196.646 30.8C197.653 30.3757 198.509 29.7816 199.216 29.0179C199.944 28.2329 200.501 27.31 200.886 26.2493C201.293 25.1885 201.496 24.0004 201.496 22.6851C201.496 21.3697 201.293 20.1816 200.886 19.1209C200.501 18.0601 199.944 17.1478 199.216 16.3841C198.488 15.5991 197.631 15.0051 196.646 14.602C195.661 14.1777 194.58 13.9655 193.402 13.9655H187.203L187.588 13.5836V31.8501Z" fill="#052F4A"/>
<path d="M215.378 34.1414C213.707 34.1414 212.219 33.7807 210.913 33.0594C209.628 32.3381 208.622 31.3304 207.893 30.0362C207.165 28.7421 206.801 27.257 206.801 25.581C206.801 24.2868 207.005 23.12 207.412 22.0804C207.819 21.0196 208.386 20.0968 209.114 19.3118C209.864 18.5268 210.752 17.9222 211.78 17.4979C212.808 17.0524 213.921 16.8296 215.121 16.8296C216.255 16.8296 217.283 17.0311 218.204 17.4342C219.146 17.8373 219.949 18.3995 220.613 19.1209C221.298 19.821 221.812 20.659 222.155 21.6349C222.498 22.6108 222.647 23.6822 222.605 24.849L222.572 25.9628H208.6L208.247 23.958H220.742L220.163 24.499V23.7352C220.121 22.9715 219.896 22.2395 219.489 21.5394C219.082 20.8181 218.504 20.2347 217.754 19.7891C217.026 19.3436 216.148 19.1209 215.121 19.1209C213.921 19.1209 212.883 19.3648 212.005 19.8528C211.127 20.3195 210.452 21.0196 209.981 21.9531C209.51 22.8866 209.275 24.0428 209.275 25.4219C209.275 26.7372 209.532 27.8828 210.046 28.8588C210.559 29.8135 211.288 30.556 212.23 31.0864C213.193 31.6168 214.35 31.882 215.699 31.882C216.491 31.882 217.273 31.7547 218.044 31.5001C218.836 31.2243 219.703 30.6939 220.645 29.9089L221.898 31.6274C221.405 32.1153 220.817 32.5503 220.131 32.9321C219.446 33.2928 218.697 33.5898 217.883 33.8232C217.069 34.0353 216.234 34.1414 215.378 34.1414Z" fill="#052F4A"/>
<path d="M230.916 33.8232L223.85 17.2115H226.516L232.104 30.8L231.462 31.15L237.597 17.2115H240.167L232.65 33.8232H230.916Z" fill="#052F4A"/>
<path d="M87.5453 52.5193C87.0768 52.5193 86.6348 52.453 86.2193 52.3204C85.8038 52.1878 85.4237 51.9889 85.079 51.7237C84.7342 51.4585 84.4293 51.1314 84.1641 50.7425L84.8801 49.9469C85.2956 50.5392 85.7199 50.9546 86.153 51.1933C86.595 51.432 87.09 51.5513 87.6381 51.5513C88.0359 51.5513 88.3983 51.485 88.7254 51.3524C89.0525 51.2198 89.3088 51.0342 89.4945 50.7955C89.6801 50.5568 89.7729 50.2828 89.7729 49.9734C89.7729 49.7701 89.7375 49.5889 89.6668 49.4298C89.6049 49.2707 89.5077 49.1292 89.3751 49.0055C89.2425 48.8817 89.079 48.7712 88.8845 48.674C88.69 48.5767 88.4646 48.4883 88.2083 48.4088C87.9607 48.3292 87.6823 48.2497 87.3729 48.1701C86.9221 48.064 86.5243 47.9403 86.1795 47.7988C85.8436 47.6486 85.5563 47.4673 85.3177 47.2552C85.0878 47.043 84.911 46.7999 84.7873 46.5259C84.6724 46.243 84.6149 45.9115 84.6149 45.5314C84.6149 45.169 84.69 44.8331 84.8403 44.5237C84.9994 44.2143 85.216 43.9491 85.49 43.7281C85.7641 43.4983 86.0867 43.3215 86.458 43.1977C86.8293 43.074 87.227 43.0121 87.6514 43.0121C88.1287 43.0121 88.553 43.0784 88.9243 43.211C89.3044 43.3347 89.6403 43.5204 89.932 43.7679C90.2237 44.0154 90.4757 44.3115 90.6878 44.6563L89.9585 45.3723C89.7729 45.0806 89.5608 44.8287 89.3221 44.6165C89.0922 44.4044 88.8359 44.2452 88.553 44.1392C88.279 44.0242 87.974 43.9668 87.6381 43.9668C87.2491 43.9668 86.9044 44.0331 86.6038 44.1657C86.3121 44.2983 86.0823 44.4839 85.9143 44.7226C85.7464 44.9524 85.6624 45.2176 85.6624 45.5182C85.6624 45.7392 85.7022 45.9381 85.7817 46.1149C85.8613 46.2828 85.9851 46.4331 86.153 46.5657C86.3298 46.6894 86.5552 46.8044 86.8293 46.9104C87.1121 47.0077 87.448 47.1005 87.837 47.1889C88.2967 47.295 88.7077 47.4231 89.0701 47.5734C89.4414 47.7237 89.7552 47.9049 90.0116 48.1171C90.2768 48.3204 90.4757 48.5591 90.6083 48.8331C90.7497 49.1071 90.8204 49.4209 90.8204 49.7745C90.8204 50.3226 90.6834 50.8044 90.4094 51.2198C90.1353 51.6265 89.7508 51.9447 89.2558 52.1745C88.7696 52.4044 88.1994 52.5193 87.5453 52.5193Z" fill="#052F4A"/>
<path d="M95.5727 52.5193C94.8832 52.5193 94.2688 52.3646 93.7296 52.0552C93.1992 51.7458 92.7793 51.3171 92.4699 50.769C92.1693 50.2209 92.0191 49.5977 92.0191 48.8994C92.0191 48.2099 92.1693 47.5955 92.4699 47.0563C92.7793 46.5171 93.1992 46.0928 93.7296 45.7834C94.2688 45.474 94.8832 45.3193 95.5727 45.3193C96.2533 45.3193 96.8589 45.474 97.3892 45.7834C97.9285 46.0928 98.3484 46.5171 98.6489 47.0563C98.9583 47.5955 99.113 48.2099 99.113 48.8994C99.113 49.5977 98.9583 50.2209 98.6489 50.769C98.3484 51.3171 97.9285 51.7458 97.3892 52.0552C96.8589 52.3646 96.2533 52.5193 95.5727 52.5193ZM95.5727 51.5778C96.0589 51.5778 96.492 51.4629 96.8721 51.2331C97.2522 50.9944 97.5484 50.6762 97.7605 50.2784C97.9727 49.8718 98.0787 49.4121 98.0787 48.8994C98.0787 48.3867 97.9727 47.9314 97.7605 47.5336C97.5484 47.1358 97.2522 46.8265 96.8721 46.6055C96.492 46.3756 96.0589 46.2607 95.5727 46.2607C95.0865 46.2607 94.6489 46.3756 94.26 46.6055C93.8798 46.8265 93.5793 47.1403 93.3583 47.5469C93.1461 47.9447 93.0445 48.3955 93.0533 48.8994C93.0445 49.4121 93.1461 49.8718 93.3583 50.2784C93.5793 50.6762 93.8798 50.9944 94.26 51.2331C94.6489 51.4629 95.0865 51.5778 95.5727 51.5778Z" fill="#052F4A"/>
<path d="M100.59 52.3867V42.5745H101.585V52.3867H100.59Z" fill="#052F4A"/>
<path d="M105.93 52.5193C105.4 52.5193 104.949 52.4132 104.578 52.201C104.216 51.98 103.937 51.6618 103.743 51.2463C103.557 50.8309 103.464 50.3137 103.464 49.695V45.4651H104.472V49.4961C104.472 49.9646 104.534 50.3579 104.658 50.6762C104.79 50.9856 104.985 51.2198 105.241 51.3789C105.506 51.5381 105.829 51.6176 106.209 51.6176C106.501 51.6176 106.77 51.569 107.018 51.4718C107.265 51.3657 107.482 51.2242 107.667 51.0475C107.853 50.8707 107.999 50.6629 108.105 50.4242C108.211 50.1856 108.264 49.9336 108.264 49.6684V45.4651H109.259V52.3867H108.277L108.238 50.9281L108.397 50.8486C108.291 51.1579 108.114 51.4408 107.866 51.6972C107.619 51.9447 107.323 52.1436 106.978 52.2939C106.642 52.4441 106.293 52.5193 105.93 52.5193Z" fill="#052F4A"/>
<path d="M114.112 52.5193C113.458 52.5193 112.875 52.3646 112.362 52.0552C111.849 51.737 111.442 51.3082 111.142 50.769C110.85 50.2209 110.704 49.6021 110.704 48.9126C110.704 48.2231 110.85 47.6088 111.142 47.0696C111.442 46.5215 111.849 46.0928 112.362 45.7834C112.875 45.474 113.462 45.3193 114.125 45.3193C114.718 45.3193 115.257 45.4386 115.743 45.6773C116.229 45.9071 116.618 46.2298 116.91 46.6452L116.326 47.3613C116.158 47.1403 115.955 46.9458 115.716 46.7778C115.487 46.6099 115.235 46.4817 114.961 46.3933C114.695 46.2961 114.43 46.2475 114.165 46.2475C113.697 46.2475 113.277 46.3668 112.905 46.6055C112.534 46.8353 112.238 47.1491 112.017 47.5469C111.805 47.9447 111.699 48.3999 111.699 48.9126C111.699 49.4254 111.805 49.885 112.017 50.2917C112.238 50.6894 112.534 51.0033 112.905 51.2331C113.277 51.4629 113.692 51.5778 114.152 51.5778C114.417 51.5778 114.678 51.5381 114.934 51.4585C115.191 51.3701 115.434 51.2463 115.663 51.0872C115.893 50.9281 116.105 50.7292 116.3 50.4905L116.883 51.2066C116.583 51.6044 116.181 51.9226 115.677 52.1613C115.173 52.3999 114.651 52.5193 114.112 52.5193ZM112.892 55.5292L112.799 54.9591C113.038 54.9502 113.272 54.9149 113.502 54.853C113.741 54.7911 113.935 54.7027 114.086 54.5878C114.245 54.4817 114.324 54.3624 114.324 54.2298C114.324 54.0883 114.254 53.9778 114.112 53.8983C113.971 53.8187 113.803 53.7613 113.608 53.7259C113.423 53.6994 113.259 53.6861 113.118 53.6861L112.945 53.5535L113.82 52.1878H114.497L113.926 53.0894C114.351 53.169 114.669 53.3016 114.881 53.4872C115.093 53.6817 115.199 53.9204 115.199 54.2033C115.199 54.4331 115.129 54.632 114.987 54.7999C114.846 54.9767 114.66 55.1182 114.43 55.2242C114.209 55.3303 113.962 55.4055 113.688 55.4497C113.423 55.5027 113.157 55.5292 112.892 55.5292Z" fill="#052F4A"/>
<path d="M121.237 52.5193C120.548 52.5193 119.934 52.3646 119.394 52.0552C118.864 51.7458 118.444 51.3171 118.135 50.769C117.834 50.2209 117.684 49.5977 117.684 48.8994C117.684 48.2099 117.834 47.5955 118.135 47.0563C118.444 46.5171 118.864 46.0928 119.394 45.7834C119.934 45.474 120.548 45.3193 121.237 45.3193C121.918 45.3193 122.524 45.474 123.054 45.7834C123.593 46.0928 124.013 46.5171 124.314 47.0563C124.623 47.5955 124.778 48.2099 124.778 48.8994C124.778 49.5977 124.623 50.2209 124.314 50.769C124.013 51.3171 123.593 51.7458 123.054 52.0552C122.524 52.3646 121.918 52.5193 121.237 52.5193ZM121.237 51.5778C121.724 51.5778 122.157 51.4629 122.537 51.2331C122.917 50.9944 123.213 50.6762 123.425 50.2784C123.637 49.8718 123.743 49.4121 123.743 48.8994C123.743 48.3867 123.637 47.9314 123.425 47.5336C123.213 47.1358 122.917 46.8265 122.537 46.6055C122.157 46.3756 121.724 46.2607 121.237 46.2607C120.751 46.2607 120.314 46.3756 119.925 46.6055C119.545 46.8265 119.244 47.1403 119.023 47.5469C118.811 47.9447 118.709 48.3955 118.718 48.8994C118.709 49.4121 118.811 49.8718 119.023 50.2784C119.244 50.6762 119.545 50.9944 119.925 51.2331C120.314 51.4629 120.751 51.5778 121.237 51.5778ZM122.006 44.2585C121.821 44.2585 121.657 44.2187 121.516 44.1392C121.383 44.0596 121.229 43.9403 121.052 43.7812C120.928 43.6662 120.822 43.5823 120.734 43.5292C120.654 43.4762 120.57 43.4497 120.482 43.4497C120.331 43.4497 120.203 43.516 120.097 43.6486C119.991 43.7723 119.92 43.9624 119.885 44.2187L119.169 44.1259C119.204 43.7281 119.346 43.3922 119.593 43.1182C119.841 42.8353 120.159 42.6939 120.548 42.6939C120.716 42.6939 120.866 42.7292 120.999 42.7999C121.131 42.8707 121.286 42.9856 121.463 43.1447C121.595 43.2508 121.701 43.3347 121.781 43.3966C121.861 43.4585 121.949 43.4894 122.046 43.4894C122.179 43.4894 122.289 43.4276 122.378 43.3038C122.475 43.18 122.537 43.0121 122.563 42.7999L123.293 42.8928C123.275 43.1403 123.209 43.3701 123.094 43.5823C122.988 43.7856 122.842 43.9491 122.656 44.0729C122.471 44.1966 122.254 44.2585 122.006 44.2585Z" fill="#052F4A"/>
<path d="M129.278 52.5193C128.589 52.5193 127.974 52.369 127.435 52.0684C126.905 51.7679 126.489 51.348 126.189 50.8088C125.888 50.2696 125.738 49.6508 125.738 48.9524C125.738 48.4132 125.822 47.927 125.99 47.4939C126.158 47.0519 126.392 46.6673 126.693 46.3403C127.002 46.0132 127.369 45.7613 127.793 45.5845C128.218 45.3988 128.677 45.306 129.172 45.306C129.641 45.306 130.065 45.39 130.445 45.5579C130.834 45.7259 131.166 45.9602 131.44 46.2607C131.723 46.5524 131.935 46.9016 132.076 47.3082C132.218 47.7149 132.279 48.1613 132.262 48.6475L132.249 49.1115H126.481L126.335 48.2762H131.493L131.254 48.5016V48.1834C131.236 47.8651 131.144 47.5602 130.976 47.2684C130.808 46.9679 130.569 46.7248 130.26 46.5392C129.959 46.3535 129.597 46.2607 129.172 46.2607C128.677 46.2607 128.249 46.3624 127.886 46.5657C127.524 46.7602 127.245 47.0519 127.051 47.4408C126.856 47.8298 126.759 48.3115 126.759 48.8861C126.759 49.4342 126.865 49.9115 127.077 50.3182C127.289 50.716 127.59 51.0254 127.979 51.2463C128.377 51.4673 128.854 51.5778 129.411 51.5778C129.738 51.5778 130.061 51.5248 130.379 51.4187C130.706 51.3038 131.064 51.0828 131.453 50.7557L131.97 51.4718C131.767 51.6751 131.524 51.8563 131.241 52.0154C130.958 52.1657 130.649 52.2894 130.313 52.3867C129.977 52.4751 129.632 52.5193 129.278 52.5193Z" fill="#052F4A"/>
<path d="M135.942 52.5193C135.349 52.5193 134.819 52.4088 134.35 52.1878C133.882 51.9668 133.511 51.6751 133.237 51.3126L133.939 50.7027C134.196 51.0121 134.496 51.2463 134.841 51.4055C135.195 51.5646 135.588 51.6441 136.021 51.6441C136.242 51.6441 136.441 51.622 136.618 51.5778C136.795 51.5248 136.949 51.4497 137.082 51.3524C137.215 51.2552 137.316 51.1403 137.387 51.0077C137.458 50.8751 137.493 50.7292 137.493 50.5701C137.493 50.2784 137.365 50.0353 137.108 49.8408C136.994 49.7613 136.83 49.6817 136.618 49.6021C136.406 49.5138 136.149 49.4298 135.849 49.3502C135.354 49.2088 134.943 49.0673 134.616 48.9259C134.289 48.7756 134.032 48.6033 133.847 48.4088C133.714 48.2497 133.612 48.0773 133.542 47.8917C133.48 47.706 133.449 47.5027 133.449 47.2817C133.449 46.9988 133.506 46.7381 133.621 46.4994C133.745 46.2607 133.913 46.053 134.125 45.8762C134.346 45.6905 134.602 45.5535 134.894 45.4651C135.195 45.3679 135.517 45.3193 135.862 45.3193C136.189 45.3193 136.512 45.3635 136.83 45.4519C137.148 45.5403 137.444 45.6684 137.718 45.8364C137.992 46.0044 138.227 46.2033 138.421 46.4331L137.811 47.0961C137.643 46.9193 137.458 46.7602 137.254 46.6187C137.051 46.4773 136.834 46.3668 136.605 46.2872C136.384 46.2077 136.154 46.1679 135.915 46.1679C135.703 46.1679 135.504 46.1944 135.318 46.2475C135.142 46.3005 134.987 46.3756 134.854 46.4729C134.731 46.5613 134.633 46.6718 134.563 46.8044C134.501 46.937 134.47 47.0828 134.47 47.2419C134.47 47.3745 134.496 47.4939 134.549 47.5999C134.602 47.706 134.678 47.7988 134.775 47.8784C134.899 47.9756 135.071 48.0684 135.292 48.1568C135.522 48.2364 135.805 48.3204 136.141 48.4088C136.529 48.5149 136.857 48.6254 137.122 48.7403C137.396 48.8463 137.621 48.9745 137.798 49.1248C138.037 49.3016 138.205 49.5049 138.302 49.7347C138.408 49.9646 138.461 50.2254 138.461 50.5171C138.461 50.906 138.35 51.2508 138.129 51.5513C137.917 51.8519 137.621 52.0905 137.241 52.2673C136.861 52.4353 136.428 52.5193 135.942 52.5193Z" fill="#052F4A"/>
<path d="M149.026 55.3038V50.6894L149.238 50.5701C149.203 50.8176 149.101 51.0607 148.933 51.2994C148.774 51.5292 148.571 51.737 148.323 51.9226C148.076 52.1082 147.797 52.2541 147.488 52.3602C147.179 52.4662 146.86 52.5193 146.533 52.5193C145.906 52.5193 145.344 52.3646 144.849 52.0552C144.354 51.7458 143.961 51.3215 143.669 50.7823C143.386 50.2342 143.245 49.6154 143.245 48.9259C143.245 48.2276 143.386 47.6088 143.669 47.0696C143.961 46.5215 144.354 46.0928 144.849 45.7834C145.344 45.474 145.897 45.3193 146.507 45.3193C146.86 45.3193 147.192 45.3767 147.501 45.4917C147.82 45.5977 148.107 45.7436 148.363 45.9292C148.62 46.1149 148.832 46.3314 149 46.5789C149.168 46.8176 149.269 47.0696 149.305 47.3347L148.986 47.2552L149.026 45.4519H150.021V55.3038H149.026ZM146.653 51.5646C147.112 51.5646 147.523 51.4541 147.886 51.2331C148.257 51.0033 148.549 50.6894 148.761 50.2917C148.973 49.8939 149.079 49.4342 149.079 48.9126C149.079 48.3999 148.973 47.9447 148.761 47.5469C148.549 47.1491 148.261 46.8353 147.899 46.6055C147.537 46.3756 147.121 46.2607 146.653 46.2607C146.184 46.2607 145.769 46.3756 145.406 46.6055C145.044 46.8353 144.757 47.1491 144.544 47.5469C144.341 47.9447 144.239 48.3999 144.239 48.9126C144.239 49.4165 144.341 49.8718 144.544 50.2784C144.748 50.6762 145.031 50.99 145.393 51.2198C145.755 51.4497 146.175 51.5646 146.653 51.5646Z" fill="#052F4A"/>
<path d="M154.411 52.5193C153.881 52.5193 153.43 52.4132 153.059 52.201C152.696 51.98 152.418 51.6618 152.223 51.2463C152.038 50.8309 151.945 50.3137 151.945 49.695V45.4651H152.953V49.4961C152.953 49.9646 153.014 50.3579 153.138 50.6762C153.271 50.9856 153.465 51.2198 153.722 51.3789C153.987 51.5381 154.309 51.6176 154.69 51.6176C154.981 51.6176 155.251 51.569 155.498 51.4718C155.746 51.3657 155.963 51.2242 156.148 51.0475C156.334 50.8707 156.48 50.6629 156.586 50.4242C156.692 50.1856 156.745 49.9336 156.745 49.6684V45.4651H157.739V52.3867H156.758L156.718 50.9281L156.877 50.8486C156.771 51.1579 156.595 51.4408 156.347 51.6972C156.1 51.9447 155.803 52.1436 155.459 52.2939C155.123 52.4441 154.774 52.5193 154.411 52.5193Z" fill="#052F4A"/>
<path d="M162.725 52.5193C162.036 52.5193 161.421 52.369 160.882 52.0684C160.352 51.7679 159.936 51.348 159.636 50.8088C159.335 50.2696 159.185 49.6508 159.185 48.9524C159.185 48.4132 159.269 47.927 159.437 47.4939C159.605 47.0519 159.839 46.6673 160.14 46.3403C160.449 46.0132 160.816 45.7613 161.24 45.5845C161.665 45.3988 162.124 45.306 162.619 45.306C163.088 45.306 163.512 45.39 163.892 45.5579C164.281 45.7259 164.613 45.9602 164.887 46.2607C165.17 46.5524 165.382 46.9016 165.523 47.3082C165.665 47.7149 165.726 48.1613 165.709 48.6475L165.696 49.1115H159.928L159.782 48.2762H164.94L164.701 48.5016V48.1834C164.683 47.8651 164.591 47.5602 164.423 47.2684C164.255 46.9679 164.016 46.7248 163.707 46.5392C163.406 46.3535 163.044 46.2607 162.619 46.2607C162.124 46.2607 161.696 46.3624 161.333 46.5657C160.971 46.7602 160.692 47.0519 160.498 47.4408C160.303 47.8298 160.206 48.3115 160.206 48.8861C160.206 49.4342 160.312 49.9115 160.524 50.3182C160.736 50.716 161.037 51.0254 161.426 51.2463C161.824 51.4673 162.301 51.5778 162.858 51.5778C163.185 51.5778 163.508 51.5248 163.826 51.4187C164.153 51.3038 164.511 51.0828 164.9 50.7557L165.417 51.4718C165.214 51.6751 164.971 51.8563 164.688 52.0154C164.405 52.1657 164.096 52.2894 163.76 52.3867C163.424 52.4751 163.079 52.5193 162.725 52.5193Z" fill="#052F4A"/>
<path d="M173.755 52.5193C173.101 52.5193 172.517 52.3646 172.004 52.0552C171.492 51.737 171.085 51.3082 170.785 50.769C170.493 50.2209 170.347 49.6021 170.347 48.9126C170.347 48.2231 170.493 47.6088 170.785 47.0696C171.085 46.5215 171.492 46.0928 172.004 45.7834C172.517 45.474 173.105 45.3193 173.768 45.3193C174.36 45.3193 174.899 45.4386 175.386 45.6773C175.872 45.9071 176.261 46.2298 176.552 46.6452L175.969 47.3613C175.801 47.1403 175.598 46.9458 175.359 46.7778C175.129 46.6099 174.877 46.4817 174.603 46.3933C174.338 46.2961 174.073 46.2475 173.808 46.2475C173.339 46.2475 172.919 46.3668 172.548 46.6055C172.177 46.8353 171.881 47.1491 171.66 47.5469C171.448 47.9447 171.341 48.3999 171.341 48.9126C171.341 49.4254 171.448 49.885 171.66 50.2917C171.881 50.6894 172.177 51.0033 172.548 51.2331C172.919 51.4629 173.335 51.5778 173.794 51.5778C174.06 51.5778 174.32 51.5381 174.577 51.4585C174.833 51.3701 175.076 51.2463 175.306 51.0872C175.536 50.9281 175.748 50.7292 175.943 50.4905L176.526 51.2066C176.225 51.6044 175.823 51.9226 175.319 52.1613C174.815 52.3999 174.294 52.5193 173.755 52.5193Z" fill="#052F4A"/>
<path d="M180.88 52.5193C180.191 52.5193 179.576 52.3646 179.037 52.0552C178.507 51.7458 178.087 51.3171 177.777 50.769C177.477 50.2209 177.326 49.5977 177.326 48.8994C177.326 48.2099 177.477 47.5955 177.777 47.0563C178.087 46.5171 178.507 46.0928 179.037 45.7834C179.576 45.474 180.191 45.3193 180.88 45.3193C181.561 45.3193 182.166 45.474 182.697 45.7834C183.236 46.0928 183.656 46.5171 183.956 47.0563C184.266 47.5955 184.42 48.2099 184.42 48.8994C184.42 49.5977 184.266 50.2209 183.956 50.769C183.656 51.3171 183.236 51.7458 182.697 52.0552C182.166 52.3646 181.561 52.5193 180.88 52.5193ZM180.88 51.5778C181.366 51.5778 181.799 51.4629 182.179 51.2331C182.56 50.9944 182.856 50.6762 183.068 50.2784C183.28 49.8718 183.386 49.4121 183.386 48.8994C183.386 48.3867 183.28 47.9314 183.068 47.5336C182.856 47.1358 182.56 46.8265 182.179 46.6055C181.799 46.3756 181.366 46.2607 180.88 46.2607C180.394 46.2607 179.956 46.3756 179.567 46.6055C179.187 46.8265 178.887 47.1403 178.666 47.5469C178.453 47.9447 178.352 48.3955 178.361 48.8994C178.352 49.4121 178.453 49.8718 178.666 50.2784C178.887 50.6762 179.187 50.9944 179.567 51.2331C179.956 51.4629 180.394 51.5778 180.88 51.5778Z" fill="#052F4A"/>
<path d="M185.871 52.3867V45.4651H186.852L186.892 46.9104L186.733 46.9767C186.822 46.6762 186.994 46.4021 187.25 46.1546C187.507 45.9071 187.812 45.7082 188.165 45.5579C188.528 45.3988 188.899 45.3193 189.279 45.3193C189.792 45.3193 190.22 45.4209 190.565 45.6242C190.91 45.8276 191.171 46.1414 191.348 46.5657C191.524 46.99 191.613 47.5292 191.613 48.1834V52.3867H190.605V48.2364C190.605 47.7767 190.543 47.401 190.419 47.1093C190.304 46.8088 190.123 46.5878 189.876 46.4463C189.628 46.3049 189.323 46.2386 188.961 46.2475C188.66 46.2475 188.382 46.3005 188.125 46.4066C187.869 46.5038 187.648 46.6408 187.462 46.8176C187.277 46.9944 187.131 47.1977 187.025 47.4276C186.919 47.6574 186.866 47.9049 186.866 48.1701V52.3867H186.375C186.313 52.3867 186.243 52.3867 186.163 52.3867C186.083 52.3867 185.986 52.3867 185.871 52.3867Z" fill="#052F4A"/>
<path d="M196.561 52.5193C195.871 52.5193 195.257 52.369 194.718 52.0684C194.187 51.7679 193.772 51.348 193.471 50.8088C193.171 50.2696 193.02 49.6508 193.02 48.9524C193.02 48.4132 193.104 47.927 193.272 47.4939C193.44 47.0519 193.675 46.6673 193.975 46.3403C194.285 46.0132 194.651 45.7613 195.076 45.5845C195.5 45.3988 195.96 45.306 196.455 45.306C196.923 45.306 197.348 45.39 197.728 45.5579C198.117 45.7259 198.448 45.9602 198.722 46.2607C199.005 46.5524 199.217 46.9016 199.359 47.3082C199.5 47.7149 199.562 48.1613 199.544 48.6475L199.531 49.1115H193.763L193.617 48.2762H198.775L198.537 48.5016V48.1834C198.519 47.8651 198.426 47.5602 198.258 47.2684C198.09 46.9679 197.851 46.7248 197.542 46.5392C197.241 46.3535 196.879 46.2607 196.455 46.2607C195.96 46.2607 195.531 46.3624 195.169 46.5657C194.806 46.7602 194.528 47.0519 194.333 47.4408C194.139 47.8298 194.041 48.3115 194.041 48.8861C194.041 49.4342 194.148 49.9115 194.36 50.3182C194.572 50.716 194.872 51.0254 195.261 51.2463C195.659 51.4673 196.137 51.5778 196.693 51.5778C197.021 51.5778 197.343 51.5248 197.661 51.4187C197.988 51.3038 198.346 51.0828 198.735 50.7557L199.253 51.4718C199.049 51.6751 198.806 51.8563 198.523 52.0154C198.24 52.1657 197.931 52.2894 197.595 52.3867C197.259 52.4751 196.914 52.5193 196.561 52.5193Z" fill="#052F4A"/>
<path d="M203.874 52.5193C203.22 52.5193 202.636 52.3646 202.124 52.0552C201.611 51.737 201.204 51.3082 200.904 50.769C200.612 50.2209 200.466 49.6021 200.466 48.9126C200.466 48.2231 200.612 47.6088 200.904 47.0696C201.204 46.5215 201.611 46.0928 202.124 45.7834C202.636 45.474 203.224 45.3193 203.887 45.3193C204.479 45.3193 205.019 45.4386 205.505 45.6773C205.991 45.9071 206.38 46.2298 206.672 46.6452L206.088 47.3613C205.92 47.1403 205.717 46.9458 205.478 46.7778C205.248 46.6099 204.997 46.4817 204.722 46.3933C204.457 46.2961 204.192 46.2475 203.927 46.2475C203.458 46.2475 203.038 46.3668 202.667 46.6055C202.296 46.8353 202 47.1491 201.779 47.5469C201.567 47.9447 201.461 48.3999 201.461 48.9126C201.461 49.4254 201.567 49.885 201.779 50.2917C202 50.6894 202.296 51.0033 202.667 51.2331C203.038 51.4629 203.454 51.5778 203.914 51.5778C204.179 51.5778 204.44 51.5381 204.696 51.4585C204.952 51.3701 205.195 51.2463 205.425 51.0872C205.655 50.9281 205.867 50.7292 206.062 50.4905L206.645 51.2066C206.345 51.6044 205.942 51.9226 205.438 52.1613C204.935 52.3999 204.413 52.5193 203.874 52.5193Z" fill="#052F4A"/>
<path d="M208.891 52.3867V43.6486H209.885V52.3867H208.891ZM207.326 46.4198V45.4651H211.636V46.4198H207.326Z" fill="#052F4A"/>
<path d="M215.497 52.5193C214.896 52.5193 214.352 52.3646 213.866 52.0552C213.38 51.737 212.995 51.3082 212.712 50.769C212.43 50.2209 212.288 49.6021 212.288 48.9126C212.288 48.2143 212.434 47.5955 212.726 47.0563C213.017 46.5171 213.406 46.0928 213.893 45.7834C214.388 45.474 214.94 45.3193 215.55 45.3193C215.912 45.3193 216.248 45.3723 216.558 45.4784C216.867 45.5845 217.141 45.7347 217.38 45.9292C217.627 46.1149 217.831 46.3358 217.99 46.5922C218.158 46.8397 218.273 47.1093 218.335 47.401L218.043 47.2552L218.083 45.4651H219.077V52.3867H218.069V50.6894L218.335 50.5171C218.273 50.7823 218.153 51.0386 217.977 51.2861C217.8 51.5248 217.583 51.737 217.327 51.9226C217.079 52.1082 216.796 52.2541 216.478 52.3602C216.169 52.4662 215.842 52.5193 215.497 52.5193ZM215.722 51.5646C216.182 51.5646 216.593 51.4541 216.956 51.2331C217.318 51.0033 217.601 50.6894 217.804 50.2917C218.016 49.885 218.122 49.4254 218.122 48.9126C218.122 48.3999 218.016 47.9447 217.804 47.5469C217.601 47.1491 217.318 46.8353 216.956 46.6055C216.593 46.3756 216.182 46.2607 215.722 46.2607C215.254 46.2607 214.838 46.3756 214.476 46.6055C214.122 46.8353 213.84 47.1491 213.627 47.5469C213.424 47.9447 213.322 48.3999 213.322 48.9126C213.322 49.4165 213.424 49.8718 213.627 50.2784C213.831 50.6762 214.114 50.99 214.476 51.2198C214.838 51.4497 215.254 51.5646 215.722 51.5646Z" fill="#052F4A"/>
<path d="M221.001 52.3867V45.4651H221.996L222.022 47.043L221.823 47.1093C221.894 46.8441 222.009 46.6055 222.168 46.3933C222.336 46.1723 222.535 45.9823 222.765 45.8231C222.995 45.664 223.247 45.5447 223.521 45.4651C223.795 45.3767 224.082 45.3325 224.383 45.3325C224.745 45.3325 225.068 45.3944 225.35 45.5182C225.642 45.6331 225.885 45.8364 226.08 46.1281C226.283 46.411 226.438 46.7867 226.544 47.2552L226.305 47.1358L226.398 46.9104C226.486 46.7071 226.615 46.5126 226.783 46.327C226.959 46.1325 227.158 45.9602 227.379 45.8099C227.609 45.6596 227.857 45.5447 228.122 45.4651C228.396 45.3767 228.674 45.3325 228.957 45.3325C229.443 45.3325 229.854 45.4386 230.19 45.6508C230.526 45.8541 230.778 46.1679 230.946 46.5922C231.123 47.0165 231.211 47.5557 231.211 48.2099V52.3867H230.19V48.2629C230.19 47.8033 230.133 47.4276 230.018 47.1358C229.903 46.8441 229.731 46.6276 229.501 46.4861C229.28 46.3358 228.997 46.2607 228.652 46.2607C228.352 46.2607 228.073 46.3138 227.817 46.4198C227.569 46.5171 227.353 46.6585 227.167 46.8441C226.99 47.0209 226.849 47.2242 226.743 47.4541C226.646 47.6839 226.597 47.9314 226.597 48.1966V52.3867H225.589V48.2497C225.589 47.8077 225.527 47.4408 225.404 47.1491C225.289 46.8574 225.116 46.6364 224.886 46.4861C224.657 46.3358 224.374 46.2607 224.038 46.2607C223.746 46.2607 223.476 46.3138 223.229 46.4198C222.981 46.5171 222.765 46.6541 222.579 46.8309C222.402 47.0077 222.261 47.211 222.155 47.4408C222.058 47.6707 222.009 47.9182 222.009 48.1834V52.3867H221.001Z" fill="#052F4A"/>
</svg>
