<svg width="21" height="21" viewBox="0 0 21 21" fill="none" xmlns="http://www.w3.org/2000/svg">
<g id="phone_call_icon 1" clip-path="url(#clip0_60_1051)">
<g id="Group 16">
<path id="Vector" d="M12.9531 3.9751C14.0132 4.25961 14.9799 4.81795 15.756 5.59409C16.5321 6.37023 17.0905 7.33686 17.375 8.39697" stroke="#F0F9FF" stroke-width="1.5" stroke-linecap="round" stroke-linejoin="round"/>
<path id="Vector_2" d="M12.3047 6.38916C12.9423 6.55849 13.5238 6.89337 13.9903 7.35984C14.4567 7.82632 14.7916 8.40782 14.9609 9.04541" stroke="#F0F9FF" stroke-width="1.5" stroke-linecap="round" stroke-linejoin="round"/>
<path id="Vector_3" d="M7.72656 10.6002C8.3697 11.9284 9.44366 12.9996 10.7734 13.6393C10.8715 13.6858 10.98 13.7059 11.0882 13.6976C11.1965 13.6894 11.3007 13.6532 11.3906 13.5924L13.3437 12.2877C13.43 12.2292 13.5298 12.1935 13.6336 12.1839C13.7374 12.1744 13.842 12.1913 13.9375 12.2331L17.5938 13.8034C17.7187 13.8554 17.8231 13.947 17.8909 14.0642C17.9586 14.1814 17.986 14.3176 17.9688 14.4518C17.8529 15.3563 17.4114 16.1876 16.7269 16.7901C16.0424 17.3926 15.1619 17.725 14.25 17.7252C11.4321 17.7252 8.72956 16.6058 6.73699 14.6133C4.74442 12.6207 3.625 9.91817 3.625 7.10025C3.62521 6.18837 3.95767 5.30781 4.56018 4.62334C5.16269 3.93886 5.99395 3.49738 6.89844 3.3815C7.03269 3.36425 7.16888 3.39162 7.28605 3.45938C7.40322 3.52714 7.49487 3.63153 7.54687 3.7565L9.11719 7.42056C9.15802 7.51458 9.17511 7.6172 9.16693 7.71938C9.15876 7.82156 9.12558 7.92016 9.07031 8.0065L7.76562 9.99087C7.70754 10.0806 7.67345 10.1838 7.66661 10.2905C7.65977 10.3972 7.68041 10.5038 7.72656 10.6002Z" stroke="#F0F9FF" stroke-width="1.5" stroke-linecap="round" stroke-linejoin="round"/>
</g>
</g>
<defs>
<clipPath id="clip0_60_1051">
<rect width="20" height="20" fill="white" transform="translate(0.5 0.850098)"/>
</clipPath>
</defs>
</svg>
