<svg width="24" height="24" viewBox="0 0 24 24" fill="none" xmlns="http://www.w3.org/2000/svg">
<g id="solution" clip-path="url(#clip0_72_1495)">
<g id="Layer_1">
<path id="Vector" d="M23.4633 10.8408L21.4133 10.1631C21.3288 9.72676 21.2141 9.29716 21.0705 8.88004L22.5101 7.2658L22.3694 6.97636C22.1261 6.47524 21.8438 5.98804 21.5313 5.5282L21.3509 5.26276L19.2432 5.70148C18.9504 5.365 18.6341 5.04916 18.2985 4.75636L18.7368 2.64868L18.4713 2.4682C18.0086 2.1538 17.5214 1.87204 17.0222 1.63012L16.7333 1.49044L15.12 2.92996C14.7019 2.78644 14.2723 2.67172 13.8369 2.58724L13.1592 0.537158L12.839 0.513638C12.2832 0.473318 11.7168 0.473318 11.1609 0.513638L10.8408 0.536678L10.163 2.58724C9.72814 2.67172 9.29806 2.78644 8.87998 2.92996L7.26574 1.49044L6.9763 1.63108C6.47518 1.87444 5.98798 2.15668 5.52814 2.46916L5.26318 2.64964L5.7019 4.75732C5.36542 5.05012 5.04958 5.36644 4.75678 5.70196L2.64958 5.26324L2.4691 5.52868C2.1547 5.9914 1.87294 6.4786 1.63102 6.9778L1.49134 7.26676L2.9299 8.88004C2.78638 9.29812 2.67166 9.72772 2.58718 10.1631L0.5371 10.8408L0.51358 11.161C0.49342 11.4389 0.47998 11.7173 0.47998 12C0.47998 12.2828 0.49342 12.5612 0.51358 12.8391L0.53662 13.1592L2.5867 13.837C2.67118 14.2733 2.7859 14.7029 2.92942 15.12L1.4899 16.7343L1.63054 17.0237C1.8739 17.5248 2.15614 18.012 2.46862 18.4719L2.6491 18.7373L4.75678 18.2986C5.04958 18.6351 5.3659 18.9509 5.70142 19.2437L5.26318 21.3514L5.52862 21.5319C5.99134 21.8463 6.47854 22.128 6.97774 22.37L7.2667 22.5096L8.88046 21.0711C9.29854 21.2146 9.72814 21.3293 10.1635 21.4138L10.8413 23.4639L11.1614 23.4869C11.4389 23.5066 11.7173 23.52 12 23.52C12.2827 23.52 12.5611 23.5066 12.839 23.4864L13.1592 23.4634L13.8369 21.4133C14.2733 21.3288 14.7029 21.2141 15.12 21.0706L16.7342 22.5101L17.0237 22.3695C17.5248 22.1261 18.012 21.8439 18.4718 21.5314L18.7373 21.3509L18.2985 19.2432C18.635 18.9504 18.9509 18.6341 19.2437 18.2986L21.3513 18.7368L21.5318 18.4714C21.8462 18.0087 22.128 17.5215 22.3699 17.0223L22.5096 16.7333L21.0701 15.12C21.2136 14.702 21.3283 14.2719 21.4128 13.837L23.4629 13.1592L23.4859 12.8391C23.5065 12.5612 23.52 12.2828 23.52 12C23.52 11.7173 23.5065 11.4389 23.4864 11.161L23.4633 10.8408ZM22.5485 12.4503L20.5637 13.1064L20.5166 13.394C20.4249 13.9618 20.2752 14.521 20.0726 15.0562L19.9699 15.3279L21.3609 16.8888C21.2232 17.1528 21.0725 17.4125 20.9117 17.665L18.8731 17.2407L18.6888 17.4663C18.324 17.9117 17.9126 18.3231 17.4653 18.6893L17.2397 18.8736L17.6645 20.9122C17.4125 21.0725 17.1533 21.2228 16.8883 21.362L15.3273 19.97L15.0552 20.0736C14.5224 20.2757 13.9632 20.4245 13.3934 20.5172L13.1059 20.5642L12.4497 22.549C12.1517 22.5639 11.8469 22.5639 11.5488 22.549L10.8926 20.5642L10.6051 20.5172C10.0368 20.4255 9.47758 20.2757 8.94334 20.0732L8.67118 19.97L7.11022 21.3615C6.84622 21.2237 6.58654 21.073 6.33406 20.9122L6.75838 18.8736L6.53278 18.6893C6.08734 18.3245 5.67598 17.9132 5.30974 17.4658L5.12542 17.2402L3.08686 17.665C2.92654 17.413 2.7763 17.1538 2.6371 16.8888L4.0291 15.3279L3.92542 15.0557C3.72334 14.5229 3.57454 13.9637 3.4819 13.394L3.43486 13.1064L1.45006 12.4503C1.4443 12.3015 1.43998 12.1512 1.43998 12C1.43998 11.8488 1.4443 11.6986 1.4515 11.5498L3.4363 10.8936L3.48334 10.6061C3.57502 10.0378 3.72478 9.4786 3.92734 8.94436L4.03054 8.6722L2.63902 7.11124C2.77678 6.84724 2.9275 6.58756 3.0883 6.33508L5.12686 6.7594L5.31118 6.5338C5.67598 6.08836 6.08734 5.677 6.5347 5.31076L6.7603 5.12644L6.3355 3.08788C6.5875 2.92756 6.8467 2.77732 7.11166 2.63812L8.67262 4.02964L8.9443 3.92692C9.4795 3.72436 10.0387 3.57508 10.6065 3.48292L10.8941 3.43588L11.5502 1.45108C11.8483 1.4362 12.1531 1.4362 12.4512 1.45108L13.1073 3.43588L13.3949 3.48292C13.9632 3.5746 14.5224 3.72436 15.0566 3.92692L15.3288 4.03012L16.8897 2.6386C17.1537 2.77636 17.4134 2.92708 17.6659 3.08788L17.2416 5.12644L17.4672 5.31076C17.9126 5.67556 18.324 6.08692 18.6902 6.53428L18.8745 6.75988L20.9131 6.33508C21.0734 6.58708 21.2237 6.84628 21.3629 7.11124L19.9709 8.6722L20.0745 8.94436C20.2766 9.47716 20.4254 10.0364 20.5181 10.6061L20.5651 10.8936L22.5499 11.5498C22.5557 11.6986 22.56 11.8488 22.56 12C22.56 12.1512 22.5557 12.3015 22.5485 12.4503Z" fill="#052F4A"/>
<path id="Vector_2" d="M11.8603 5.28185C9.36962 5.35241 7.28018 7.43609 7.2029 9.92681C7.15682 11.3769 7.76066 12.754 8.85794 13.7039C9.63458 14.3759 10.08 15.3172 10.08 16.3199V16.7999V18.7199H11.52V19.6799H12.48V18.7199H13.92V16.7673V16.2873C13.92 15.3273 14.3746 14.3774 15.1675 13.6819C16.2053 12.7708 16.8 11.4585 16.8 10.0799C16.8 8.77145 16.2835 7.54937 15.3451 6.63737C14.4072 5.72585 13.1659 5.25833 11.8603 5.28185ZM12.96 17.7599H11.04V16.7999H12.96V17.7599ZM14.5344 12.9599C13.6608 13.727 13.1122 14.7484 12.9874 15.8399H12.48V11.2387L13.7794 9.93929L13.1007 9.26057L12 10.3612L10.8994 9.26057L10.2207 9.93929L11.52 11.2387V15.8399H11.016C10.8984 14.7547 10.3555 13.7303 9.48578 12.9782C8.60786 12.2179 8.12546 11.1167 8.16194 9.95657C8.22386 7.96457 9.89474 6.29801 11.8872 6.24185C12.9375 6.20585 13.9253 6.59609 14.676 7.32569C15.4267 8.05529 15.84 9.03305 15.84 10.0799C15.84 11.182 15.3643 12.2318 14.5344 12.9599Z" fill="#052F4A"/>
</g>
</g>
<defs>
<clipPath id="clip0_72_1495">
<rect width="24" height="24" fill="white"/>
</clipPath>
</defs>
</svg>
