<svg width="95" height="94" viewBox="0 0 95 94" fill="none" xmlns="http://www.w3.org/2000/svg">
<g id="app 1">
<g id="Group">
<path id="Vector" d="M3.73133 1.46875C3.45594 1.56055 3.05203 1.78086 2.85008 1.96446C1.93211 2.77227 1.96883 1.87266 1.96883 27.2637C1.96883 50.4883 1.96883 51.0758 2.33602 51.7551C2.96024 53.0035 3.23563 53.0586 9.3493 53.0586C15.4079 53.0586 15.72 53.0035 16.3442 51.7734C16.638 51.1676 16.6563 49.6988 16.6196 26.9516L16.5645 2.77227L16.0321 2.22149C15.72 1.90938 15.1876 1.56055 14.8388 1.46875C14.0309 1.24844 4.48406 1.24844 3.73133 1.46875ZM14.4532 4.68164V5.85664L13.2415 5.91172C12.1399 5.9668 11.9747 6.02188 11.6442 6.4625L11.2587 6.97656L11.6442 7.47227C11.9747 7.93125 12.1399 7.98633 13.2415 8.04141L14.4532 8.09649V9.27149V10.4648H13.2966C12.0665 10.4648 11.6259 10.6668 11.4239 11.3277C11.3505 11.6398 11.4423 11.8602 11.7727 12.209C12.1583 12.5945 12.397 12.668 13.3516 12.668H14.4532V13.7695V14.8711H13.2966C12.0665 14.8711 11.6259 15.073 11.4239 15.734C11.3505 16.0461 11.4423 16.2664 11.7727 16.6152C12.1583 17.0008 12.397 17.0742 13.3516 17.0742H14.4532V18.2676V19.4609H13.2598C12.3052 19.4609 11.993 19.5344 11.6993 19.8281C11.2403 20.2871 11.2403 20.5809 11.6809 21.1316C11.9563 21.4805 12.2317 21.5723 13.2415 21.6273L14.4532 21.7008V22.8758V24.0508H13.168C11.993 24.0508 11.8645 24.0875 11.5708 24.5281C11.2954 24.9688 11.2954 25.0605 11.5341 25.5012C11.7727 25.9418 11.9196 25.9785 13.1313 26.0336L14.4532 26.0887V27.2637V28.457H13.168C11.993 28.457 11.8645 28.4938 11.5708 28.9344C11.2954 29.375 11.2954 29.4668 11.5341 29.9074C11.7727 30.348 11.9196 30.3848 13.1313 30.4398L14.4532 30.4949V31.7617V33.0285L13.1313 33.0836C11.9196 33.1387 11.7727 33.1754 11.5341 33.616C11.2954 34.0566 11.2954 34.1484 11.5708 34.5891C11.8645 35.0297 11.993 35.0664 13.168 35.0664H14.4532V36.2598V37.4531H13.3516C12.397 37.4531 12.1583 37.5266 11.7727 37.9121C11.4423 38.2609 11.3505 38.4813 11.4239 38.7934C11.6259 39.4543 12.0665 39.6563 13.2966 39.6563H14.4532V40.7395V41.8227L13.2415 41.8961C12.2317 41.9512 11.9563 42.043 11.6809 42.3918C11.2403 42.9426 11.2403 43.2363 11.6993 43.6953C11.993 43.9891 12.3052 44.0625 13.2598 44.0625H14.4532V45.2559V46.4492H13.3516C12.397 46.4492 12.1583 46.5227 11.7727 46.9082C11.4423 47.257 11.3505 47.4773 11.4239 47.7895C11.6259 48.4504 12.0665 48.6523 13.2966 48.6523H14.4532V49.7539V50.8555H9.31258H4.17195V27.1719V3.48828H9.31258H14.4532V4.68164Z" fill="#F0F9FF"/>
<path id="Vector_2" d="M27.7637 1.63398C26.2582 2.01953 24.9364 3.08437 24.1653 4.58984L23.7246 5.41601L23.6696 34.9195L23.6328 64.4047L22.2375 63.6887C21.4848 63.3031 20.7321 62.9727 20.5852 62.9727C20.2547 62.9727 20.218 62.8809 19.961 61.1551C19.6305 59.1723 19.5571 59.1172 16.6746 59.1172C14.5633 59.1172 14.2696 59.1539 13.8289 59.5027C13.5719 59.7047 13.3516 60.0168 13.3516 60.1637C13.3516 60.3289 13.2598 60.9898 13.1496 61.6141L12.9477 62.7707L11.6442 63.3766C10.9098 63.707 9.80824 64.368 9.18402 64.8453L8.02738 65.7082L6.7055 65.2492C4.50238 64.5148 4.5391 64.4965 2.70316 67.7094C1.56488 69.7473 1.58324 69.8207 3.19886 71.1426L4.30043 72.0238L4.15355 72.7766C3.96996 73.7496 3.96996 76.0629 4.15355 77.0543L4.30043 77.8254L3.14379 78.7617C2.50121 79.2758 1.93207 79.8633 1.87699 80.0652C1.78519 80.3406 2.11566 81.075 2.99691 82.5805C3.67621 83.7555 4.31879 84.7836 4.42894 84.857C4.79613 85.0957 5.54886 85.0223 6.83402 84.5816L8.10082 84.1594L9.42269 85.0957C10.1387 85.6098 11.277 86.2707 11.9563 86.5645C12.6907 86.8766 13.168 87.1887 13.168 87.3539C13.168 87.5191 13.2598 88.1617 13.37 88.8227C13.6821 90.6402 13.7922 90.6953 16.7114 90.6953C18.4555 90.6953 19.245 90.6219 19.4836 90.4566C19.7223 90.2914 19.9243 89.6855 20.1262 88.6023L20.42 87.0051L21.4481 86.5828C22.0172 86.3625 22.7332 85.9953 23.027 85.775L23.5961 85.3711L23.6696 86.9867C23.7981 89.3918 24.6977 90.9156 26.6621 91.9437L27.5801 92.4395H47.5H67.42L68.3379 91.9437C69.4395 91.3746 70.2657 90.5301 70.8348 89.4102C71.202 88.6941 71.2754 88.2535 71.3305 86.1422L71.4039 83.7187H75.9938C81.1895 83.7187 81.7219 83.627 82.6582 82.5988C83.4661 81.6992 83.668 80.9098 83.668 78.7066C83.668 77.1277 83.7047 76.9258 83.9985 76.9258C84.1637 76.9258 85.1368 77.752 86.1465 78.7617C87.7071 80.3406 88.0559 80.5977 88.57 80.5977C89.3778 80.5977 89.543 80.2121 89.543 78.4129C89.543 76.9441 89.543 76.9258 90.0571 76.834C90.9383 76.6504 91.7828 76.118 92.3703 75.402L92.9395 74.6859L92.9946 68.0582C93.068 60.9531 93.0129 60.4758 92.1684 59.466C91.2321 58.3645 91.3789 58.3828 80.9141 58.3828H71.3672V41.6758V24.9687H78.7844C85.6508 24.9687 86.2934 24.9504 87.3766 24.6016C93.5637 22.6922 94.7754 14.4855 89.4145 10.8137C87.6703 9.60195 84.7696 9.17968 82.8602 9.82226L82.034 10.116L80.9692 9.05117C78.968 7.06835 76.5996 6.13203 73.8641 6.29726C72.9461 6.35234 72.0098 6.44414 71.8078 6.51757C71.459 6.62773 71.4039 6.55429 71.2754 5.94843C70.9817 4.33281 69.8801 2.86406 68.3379 2.05624L67.42 1.56054L47.8672 1.52382C37.1086 1.52382 28.0758 1.56054 27.7637 1.63398ZM67.6035 4.09414C68.5766 4.64492 69.1641 5.6914 69.1641 6.88476C69.1641 7.74765 69.109 7.83945 68.4114 8.33515C67.6219 8.88593 66.5203 10.1711 65.9879 11.1992L65.6391 11.8418H64.152C62.9219 11.8602 62.4629 11.9519 61.6368 12.3375C60.2414 12.9801 59.2317 13.9164 58.5524 15.1832C56.7532 18.5613 58.02 22.6004 61.4164 24.2711L62.6282 24.8769L65.8961 24.932L69.1641 25.0055V41.6574V58.3277L68.4114 58.6582C67.9891 58.8602 67.4383 59.3008 67.1813 59.6496C66.7039 60.2555 66.6856 60.4023 66.6305 62.734L66.5571 65.1758H63.0504C58.9379 65.1758 58.3137 65.3594 57.5059 66.718L57.0469 67.5074V74.3371C57.0469 79.6797 57.102 81.2953 57.3039 81.7543C57.6344 82.5621 58.5524 83.3148 59.5438 83.5535L60.3516 83.7555V85.2609C60.3516 86.8582 60.4067 87.0418 61.0309 87.3723C61.6551 87.6844 62.1141 87.3906 64.0235 85.4812L65.7676 83.7187H67.4567H69.1641V85.8668C69.1641 87.7762 69.109 88.125 68.7418 88.7676C68.5032 89.1715 68.0075 89.6672 67.6035 89.9059L66.8692 90.3281H47.5H28.1309L27.3965 89.9059C26.2032 89.2266 25.836 88.382 25.836 86.1605V84.2695L26.7907 84.6551C27.3047 84.857 28.0207 85.0039 28.3696 84.9672C28.9754 84.9121 29.0489 84.8203 30.1688 82.8008C30.8114 81.6441 31.3254 80.5059 31.3438 80.2855C31.3438 80.0285 30.9582 79.5512 30.2239 78.9086L29.1039 77.9172L29.0672 74.943L29.0489 71.9504L30.2055 70.9406C30.9582 70.2613 31.3438 69.8023 31.3254 69.527C31.3254 69.3066 30.7563 68.1684 30.077 67.0117C28.6817 64.6434 28.5348 64.5516 26.9926 65.0656C26.5153 65.2309 26.0746 65.3594 25.9828 65.3594C25.9094 65.3594 25.836 51.9937 25.836 35.6539V5.96679L26.2582 5.23242C26.4969 4.82851 26.9926 4.33281 27.3965 4.09414L28.1309 3.67187H47.5H66.8692L67.6035 4.09414ZM75.4981 8.46367C77.4442 8.81249 79.2067 9.98749 80.3817 11.6766C80.6754 12.1172 81.061 12.5027 81.2446 12.5762C81.4465 12.6312 82.0707 12.4477 82.6766 12.1723C83.5578 11.7684 84.0168 11.6766 85.1368 11.6766C87.4133 11.6766 89.1024 12.7414 90.1121 14.7793C90.6446 15.8809 90.6813 16.0644 90.6078 17.4781C90.5528 18.4328 90.4059 19.2406 90.2039 19.6445C89.745 20.5074 88.4965 21.7926 87.6703 22.2332C86.3852 22.8941 84.8614 22.9676 73.9192 22.9125C63.6746 22.8574 63.3625 22.8391 62.5547 22.4719C60.8289 21.6641 59.911 20.232 59.911 18.3594C59.911 16.5234 60.9575 14.9262 62.5914 14.2469C63.4176 13.898 64.9598 13.8613 65.8043 14.1734C66.7407 14.5223 66.8875 14.3937 67.8055 12.4293C68.6868 10.5566 70.7063 8.99609 72.836 8.51874C74.1395 8.22499 74.2313 8.22499 75.4981 8.46367ZM90.461 60.7695C90.8098 61.1184 90.8282 61.3754 90.8282 67.6359V74.1535L90.4243 74.4289C90.1856 74.6125 89.6164 74.7227 89.0473 74.7227C87.8539 74.7227 87.5235 75.0164 87.5235 76.118C87.5235 76.5586 87.45 76.9258 87.3766 76.9258C87.3032 76.9258 86.7524 76.4301 86.1465 75.8242C85.2102 74.8695 84.9715 74.7227 84.384 74.7227H83.7047L83.6313 71.1793C83.5762 67.8195 83.5578 67.6176 83.1172 66.8281C82.7868 66.2406 82.4196 65.8734 81.8321 65.5797C81.0426 65.1758 80.8774 65.1758 74.8188 65.1758H68.6133V63.1746C68.6133 60.1086 67.4567 60.4023 79.8309 60.4023C89.8551 60.4023 90.0938 60.4023 90.461 60.7695ZM18.07 62.7891C18.3086 64.1844 18.6942 64.8086 19.3735 64.8086C19.961 64.8086 22.311 66.1121 23.3207 66.9934C23.9266 67.5258 24.5692 67.9297 24.8078 67.9297C25.0282 67.9297 25.7258 67.7461 26.3684 67.5441C27.6719 67.1035 27.6903 67.1035 28.4246 68.4437L28.8469 69.2332L27.6903 70.298C26.8641 71.0691 26.552 71.473 26.6254 71.6934C26.6989 71.8586 26.8457 72.7398 26.9743 73.6395C27.1762 75.2367 27.0477 77.0359 26.6438 78.1008C26.552 78.3395 26.809 78.7066 27.6903 79.5145L28.8469 80.616L28.3512 81.6074C28.0758 82.1582 27.7821 82.6172 27.7086 82.6172C27.6168 82.6172 27.066 82.452 26.4785 82.25C24.9364 81.7176 24.6426 81.7727 23.5961 82.709C22.4946 83.682 21.136 84.4898 19.8141 84.9121C18.6575 85.2977 18.3821 85.6648 18.2168 87.0418C18.1434 87.6109 18.0332 88.1617 17.9598 88.2902C17.868 88.4371 17.409 88.4922 16.6379 88.4555L15.4813 88.4004L15.2426 87.0234C15.0039 85.6281 14.6184 85.0039 13.9391 85.0039C13.3516 85.0039 11.0016 83.7004 9.99183 82.8191C8.79847 81.7727 8.5598 81.7176 7.01761 82.25C6.43011 82.452 5.84261 82.6172 5.7141 82.6172C5.58558 82.6172 5.21839 82.1582 4.90629 81.5891L4.31879 80.5609L5.01644 79.9918C6.54027 78.7434 6.61371 78.6332 6.44847 77.7887C6.24652 76.7973 6.24652 73.2172 6.44847 72.1156C6.59535 71.2527 6.59535 71.2344 5.89769 70.6102C5.49379 70.2613 4.97972 69.8207 4.74105 69.6187L4.30043 69.2699L4.88793 68.2418C5.21839 67.6543 5.54886 67.1953 5.6223 67.1953C5.69574 67.1953 6.24652 67.3605 6.83402 67.5625C8.35785 68.0949 8.66996 68.0398 9.7348 67.1035C10.7078 66.2406 12.5621 65.1941 13.7739 64.8086C14.5633 64.5516 14.9121 64.0926 15.0774 63.0645C15.3895 61.1551 15.261 61.302 16.6196 61.357L17.8313 61.4121L18.07 62.7891ZM81.1895 67.8012C81.5934 68.4254 81.5934 80.4691 81.1711 81.0934L80.9141 81.5156H72.9094H64.9047L63.7297 82.6539L62.5547 83.7738V83.0211C62.5547 81.9012 62.0957 81.5156 60.8106 81.5156C60.0395 81.5156 59.709 81.4238 59.4336 81.1484C59.0848 80.7996 59.0664 80.5426 59.0664 74.484C59.0664 69.0863 59.1032 68.1316 59.3602 67.7828L59.6356 67.3789H70.2657H80.9141L81.1895 67.8012Z" fill="#F0F9FF"/>
<path id="Vector_3" d="M44.7829 8.55547C44.3055 8.88594 44.2321 9.74883 44.6727 10.1711C44.893 10.4098 45.4255 10.4648 47.5001 10.4648C50.309 10.4648 50.6212 10.3547 50.6212 9.36328C50.6212 8.44531 50.1071 8.26172 47.5001 8.26172C45.7192 8.26172 45.095 8.3168 44.7829 8.55547Z" fill="#F0F9FF"/>
<path id="Vector_4" d="M44.3973 31.4128C39.8258 32.3124 35.6215 35.4702 33.4734 39.6562C32.0598 42.3733 31.8027 43.5116 31.8027 46.9081C31.8027 50.3229 32.0047 51.3144 33.2531 53.8847C35.1992 57.9604 39.073 61.1733 43.4609 62.3667C45.15 62.8257 49.85 62.8257 51.5391 62.3667C55.927 61.1733 59.8008 57.9604 61.7469 53.8847C62.977 51.3327 63.1973 50.3046 63.1973 46.9999C63.1973 43.6952 62.977 42.6671 61.7469 40.1151C59.6355 35.6905 55.5598 32.496 50.8047 31.4862C49.391 31.1925 45.7559 31.1374 44.3973 31.4128ZM50.8965 33.6894C51.5023 33.8362 52.7875 34.3503 53.7422 34.8276C55.2109 35.5437 55.7434 35.9476 57.157 37.3429C58.5523 38.7565 58.9562 39.289 59.6723 40.7577C60.8656 43.1628 61.1594 44.4296 61.1594 46.9999C61.1594 49.5702 60.8656 50.837 59.6723 53.2421C58.9562 54.7108 58.5523 55.2433 57.157 56.6569C55.7434 58.0522 55.2109 58.4562 53.7422 59.1722C51.3371 60.3655 50.0703 60.6593 47.5 60.6593C44.9297 60.6593 43.6629 60.3655 41.2578 59.1722C39.7891 58.4562 39.2566 58.0522 37.843 56.6569C36.4477 55.2433 36.0437 54.7108 35.3277 53.2421C34.1344 50.837 33.8406 49.5702 33.8406 46.9999C33.8406 44.4296 34.1344 43.1628 35.3277 40.7577C36.0437 39.289 36.4293 38.7565 37.843 37.3612C40.0461 35.1765 42.084 34.0749 45.0215 33.4874C46.5637 33.1937 49.3176 33.2854 50.8965 33.6894Z" fill="#F0F9FF"/>
<path id="Vector_5" d="M45.8661 38.9954C43.4794 39.8583 42.3411 42.9611 43.5528 45.256C43.8098 45.7333 43.9934 46.1372 43.9751 46.1556C43.9384 46.1739 43.4977 46.4677 42.9837 46.7798C40.7805 48.1568 39.2751 50.4517 38.8528 53.0036C38.6692 54.1603 38.6692 54.3806 38.9446 54.8029C39.3118 55.3536 40.138 55.4271 40.5602 54.9314C40.7255 54.7661 40.8907 54.1236 40.9458 53.5361C41.1661 51.3513 42.6348 49.2767 44.7094 48.2486C45.4438 47.8814 45.8661 47.8263 47.5001 47.8263C49.1341 47.8263 49.5563 47.8814 50.2907 48.2486C52.3653 49.2767 53.8341 51.3513 54.0544 53.5361C54.1094 54.1236 54.2747 54.7661 54.4399 54.9314C54.8622 55.4271 55.6884 55.3536 56.0555 54.8029C56.3309 54.3806 56.3309 54.1603 56.1473 53.0036C56.0372 52.2693 55.6884 51.1677 55.3946 50.5251C54.7704 49.1849 53.1548 47.404 51.9247 46.7064C51.4657 46.431 51.0618 46.1923 51.0251 46.1739C51.0067 46.1556 51.1903 45.7333 51.4473 45.256C51.9798 44.2279 52.0716 42.5021 51.6309 41.4372C50.7497 39.3075 48.1059 38.1876 45.8661 38.9954ZM48.2895 41.015C49.6665 41.6025 50.2356 43.0161 49.5563 44.2279C49.1708 44.9255 48.2161 45.5314 47.5001 45.5314C46.3802 45.5314 45.1134 44.2829 45.1134 43.1814C45.1134 42.3368 45.6825 41.4556 46.4719 41.1068C47.3716 40.7029 47.5368 40.6845 48.2895 41.015Z" fill="#F0F9FF"/>
<path id="Vector_6" d="M44.6727 83.8289C44.2321 84.2512 44.3055 85.1141 44.7829 85.4445C45.095 85.6832 45.7192 85.7383 47.5001 85.7383C50.1071 85.7383 50.6212 85.5547 50.6212 84.6367C50.6212 83.6453 50.309 83.5352 47.5001 83.5352C45.4255 83.5352 44.893 83.5902 44.6727 83.8289Z" fill="#F0F9FF"/>
<path id="Vector_7" d="M15.3712 69.7474C12.9294 70.5552 11.4423 72.5013 11.4423 74.9064C11.4606 78.0275 14.0126 80.4325 17.0969 80.1939C19.9977 79.9552 22.0173 77.7704 21.9989 74.8696C21.9989 72.7216 20.9891 71.1243 18.988 70.1146C18.1618 69.6739 16.179 69.472 15.3712 69.7474ZM18.2903 72.1708C19.8876 73.0521 20.3833 75.145 19.3735 76.6872C18.7126 77.6786 17.813 78.0825 16.4911 77.9907C15.2059 77.8989 14.3614 77.3482 13.8841 76.3017C13.4251 75.2919 13.4434 74.3923 13.9575 73.4193C14.7653 71.8954 16.7848 71.3079 18.2903 72.1708Z" fill="#F0F9FF"/>
<path id="Vector_8" d="M80.5469 31.6332C76.6363 32.9551 74.1211 36.4618 74.1211 40.5743C74.1211 43.2914 74.9289 45.2375 76.9117 47.2387C80.9508 51.3329 87.707 50.8555 91.1219 46.2289C92.2969 44.6317 93.0313 42.4102 93.0313 40.4825C93.0313 39.2891 92.352 36.9207 91.691 35.8375C90.4609 33.7629 88.2395 32.0555 85.9813 31.468C84.4941 31.0641 81.9605 31.1375 80.5469 31.6332ZM84.9898 33.4325C90.5344 34.6075 92.7375 41.4004 88.9004 45.5129C84.6594 50.0477 77.3156 47.7711 76.2875 41.6391C75.8836 39.1789 77.0219 36.37 79.023 34.8645C80.1613 34.0016 80.4918 33.8364 81.6852 33.5243C82.8969 33.1938 83.7414 33.1754 84.9898 33.4325Z" fill="#F0F9FF"/>
<path id="Vector_9" d="M84.2004 39.3257L81.8871 41.7675L81.1344 41.0698C80.2531 40.2987 79.6106 40.1886 79.1883 40.7944C78.711 41.4554 78.8395 41.8225 79.8492 42.9057C80.9875 44.0991 81.7035 44.5214 82.1442 44.2643C82.3094 44.1725 83.7231 42.8323 85.2653 41.2718C87.652 38.885 88.0742 38.371 88.0742 37.8936C88.0742 37.196 87.7805 36.9022 87.0645 36.9022C86.5871 36.9022 86.1832 37.2511 84.2004 39.3257Z" fill="#F0F9FF"/>
</g>
</g>
</svg>
