<svg width="99" height="94" viewBox="0 0 99 94" fill="none" xmlns="http://www.w3.org/2000/svg">
<g clip-path="url(#clip0_60_565)">
<path d="M6.60535 27H94.3898" stroke="#0069A8" stroke-width="4" stroke-linecap="round"/>
<path d="M13.5881 21H17.5783" stroke="#00A1E9" stroke-width="4" stroke-linecap="round"/>
<path d="M24.5613 21H28.5515" stroke="#00A1E9" stroke-width="4" stroke-linecap="round"/>
<rect x="3.62" y="12.5" width="91.76" height="69" rx="5" stroke="#0069A8" stroke-width="6"/>
<path d="M38.8944 71.9596C38.8944 71.9596 35.718 72.5778 35.718 68.9779M32.5416 54.6577C32.5416 54.6577 35.718 54.6577 35.718 57.5989M35.718 68.9779C35.718 65.378 35.718 60.1378 35.718 57.5989M35.718 68.9779V57.5989" stroke="#00BCFF" stroke-width="3" stroke-linecap="round"/>
<path d="M38.8944 37.0404C38.8944 37.0404 35.718 36.4222 35.718 40.0221M32.5416 54.6577C32.5416 54.6577 35.718 54.3423 35.718 51.4011M35.718 40.0221C35.718 43.622 35.718 48.8622 35.718 51.4011M35.718 40.0221V51.4011" stroke="#00A1E9" stroke-width="3" stroke-linecap="round"/>
<path d="M59.108 71.9596C59.108 71.9596 62.2844 72.5778 62.2844 68.9779M65.4609 54.6577C65.4609 54.6577 62.2844 54.6577 62.2844 57.5989M62.2844 68.9779C62.2844 65.378 62.2844 60.1378 62.2844 57.5989M62.2844 68.9779V57.5989" stroke="#00BCFF" stroke-width="3" stroke-linecap="round"/>
<path d="M59.108 37.0404C59.108 37.0404 62.2844 36.4222 62.2844 40.0221M65.4609 54.6577C65.4609 54.6577 62.2844 54.3423 62.2844 51.4011M62.2844 40.0221C62.2844 43.622 62.2844 48.8622 62.2844 51.4011M62.2844 40.0221V51.4011" stroke="#00A1E9" stroke-width="3" stroke-linecap="round"/>
<path d="M42.1765 48.1205C42.1765 45.3787 44.264 43.0878 46.994 42.8335V42.8335L46.3257 46.0412C46.2139 46.5779 46.1576 47.1246 46.1576 47.6728V61.1599C46.1576 63.6505 44.5484 65.8557 42.1765 66.6156V66.6156V65.3402V48.1205Z" fill="#00598A"/>
<path d="M42.4609 55.7754H42.1765V55.7754C42.3364 53.2656 44.4186 51.3118 46.9335 51.3118H52.1292V51.3118C52.1292 53.777 50.1308 55.7754 47.6657 55.7754H42.4609Z" fill="#00BCFF"/>
<path d="M45.3633 46.8482C45.1346 46.8482 44.9064 46.8367 44.6777 46.8365C44.257 46.8362 43.5369 46.8827 43.0296 47.1671C42.2719 47.5918 42.1765 48.1235 42.1765 48.1235V48.1235C42.4993 44.8664 45.2391 42.3847 48.5122 42.3847H55.8259V42.3847C55.8259 44.8498 53.8275 46.8482 51.3624 46.8482H45.3633Z" fill="#00A1E9"/>
</g>
<defs>
<clipPath id="clip0_60_565">
<rect width="97.76" height="94" fill="white" transform="translate(0.619995)"/>
</clipPath>
</defs>
</svg>
