<svg width="18" height="18" viewBox="0 0 18 18" fill="none" xmlns="http://www.w3.org/2000/svg">
<g id="Layer 45">
<path id="Vector" d="M17.4509 14.3336L11.6556 8.53833C12.16 7.39881 12.302 6.13177 12.0623 4.90886C11.8226 3.68595 11.2128 2.56628 10.3154 1.70153C9.41812 0.836775 8.27668 0.268744 7.04574 0.0743837C5.81481 -0.119976 4.55388 0.0687291 3.43378 0.614936C3.3207 0.669528 3.22236 0.750442 3.147 0.850891C3.07165 0.95134 3.02149 1.06839 3.00072 1.19223C2.97995 1.31607 2.98919 1.44309 3.02765 1.56262C3.06611 1.68216 3.13267 1.79073 3.22175 1.87923L6.19794 4.85541L4.80801 6.24534L1.86323 3.26916C1.77474 3.18007 1.66617 3.11351 1.54663 3.07505C1.4271 3.03659 1.30008 3.02736 1.17624 3.04812C1.0524 3.06889 0.935349 3.11906 0.8349 3.19441C0.734452 3.26976 0.653537 3.3681 0.598945 3.48118C0.0624632 4.59842 -0.119651 5.85296 0.0770166 7.07663C0.273684 8.3003 0.839734 9.4346 1.69928 10.3275C2.55883 11.2203 3.67079 11.8291 4.88609 12.0721C6.1014 12.3152 7.36196 12.1809 8.49879 11.6873L14.2941 17.4826C14.7216 17.8391 15.267 18.0229 15.8231 17.9977C16.3792 17.9726 16.9058 17.7404 17.2994 17.3468C17.693 16.9532 17.9252 16.4266 17.9503 15.8705C17.9754 15.3144 17.7917 14.769 17.4352 14.3415L17.4509 14.3336ZM16.3437 16.3754C16.2829 16.4378 16.2103 16.4874 16.13 16.5213C16.0498 16.5552 15.9635 16.5727 15.8764 16.5727C15.7893 16.5727 15.7031 16.5552 15.6228 16.5213C15.5426 16.4874 15.4699 16.4378 15.4092 16.3754L9.21338 10.1796C9.09259 10.0572 8.93498 9.9779 8.76475 9.95378C8.59452 9.92967 8.42108 9.96208 8.27106 10.0461C7.52251 10.4626 6.67092 10.6576 5.81572 10.6083C4.96051 10.559 4.13697 10.2674 3.44124 9.76766C2.74551 9.26789 2.2063 8.58052 1.88656 7.7858C1.56682 6.99108 1.47975 6.1218 1.6355 5.27945L4.26617 7.91012C4.4133 8.05637 4.61233 8.13847 4.81978 8.13847C5.02724 8.13847 5.22627 8.05637 5.3734 7.91012L7.87057 5.41295C8.01682 5.26582 8.09892 5.06679 8.09892 4.85933C8.09892 4.65188 8.01682 4.45285 7.87057 4.30572L5.23991 1.6672C6.08225 1.51145 6.95153 1.59852 7.74625 1.91826C8.54097 2.238 9.22834 2.77721 9.72811 3.47294C10.2279 4.16866 10.5194 4.9922 10.5687 5.84741C10.618 6.70262 10.423 7.55421 10.0065 8.30275C9.92253 8.45278 9.89012 8.62622 9.91423 8.79644C9.93835 8.96667 10.0177 9.12428 10.14 9.24508L16.3358 15.4409C16.3983 15.5016 16.4479 15.5743 16.4818 15.6545C16.5157 15.7348 16.5332 15.821 16.5332 15.9081C16.5332 15.9952 16.5157 16.0815 16.4818 16.1617C16.4479 16.242 16.3983 16.3146 16.3358 16.3754H16.3437Z" fill="#052F4A"/>
</g>
</svg>
