<svg width="95" height="94" viewBox="0 0 95 94" fill="none" xmlns="http://www.w3.org/2000/svg">
<g id="maintenance 1">
<g id="Group">
<path id="Vector" d="M62.8117 4.95703C61.0676 5.14062 60.884 5.21406 60.1496 5.98515C59.5438 6.60937 59.5254 6.66445 59.4703 8.40859L59.3969 10.1895L57.9465 10.7219C57.1387 10.9973 56.0188 11.4562 55.4496 11.75L54.4215 12.2824L53.2281 11.1809C51.7777 9.85898 50.9332 9.56523 49.8133 9.9875C48.3078 10.575 43.8281 14.9629 43.2774 16.4316C42.8184 17.6617 43.1305 18.5246 44.5442 19.9199C45.0582 20.4156 45.4805 20.9297 45.4805 21.0398C45.4805 21.1684 45.2051 21.8477 44.8563 22.5453C44.5258 23.2613 44.0852 24.3262 43.9016 24.932L43.5527 26.0336L41.8637 26.107C40.0645 26.1805 39.5688 26.3824 38.8344 27.3738C38.302 28.0715 38.0817 30.091 38.1734 33.2305C38.2836 36.3148 38.4488 37.0309 39.3301 37.8203C39.7707 38.2242 40.0277 38.2977 41.6617 38.3711L43.516 38.4629L43.9199 39.6746C44.1402 40.3355 44.5992 41.4555 44.9297 42.1898L45.5356 43.5117L44.4156 44.7051C42.2859 46.9633 42.5797 48.0832 46.2516 51.7184C48.5649 54.0133 49.5563 54.7109 50.566 54.7109C51.6125 54.7109 51.943 54.5273 53.2281 53.2789L54.2746 52.2691L55.8902 53.0035C56.7715 53.4074 57.9465 53.8848 58.4789 54.0684L59.4336 54.3805V55.9777C59.4336 57.8137 59.7457 58.5297 60.9024 59.1906C61.4899 59.5395 61.8387 59.5762 65.584 59.5762C69.2926 59.5762 69.6781 59.5395 70.2473 59.209C71.3856 58.5297 71.6426 57.9973 71.6977 56.0879L71.7711 54.3805L72.891 53.9766C73.5152 53.7562 74.6719 53.2789 75.4613 52.9117L76.8934 52.2508L78.0684 53.4258C79.1149 54.4723 79.3168 54.5824 80.143 54.6742C81.5016 54.8027 82.1809 54.3621 84.8797 51.6816C87.3215 49.2398 88.0742 48.1566 88.0742 47.0734C88.0742 46.4125 87.2848 45.1457 86.275 44.1727L85.5406 43.4566L86.0914 42.3734C86.3852 41.7859 86.8625 40.6477 87.1563 39.8766L87.6703 38.4629L89.3961 38.3711C91.434 38.2609 91.9848 37.9855 92.4988 36.7922C93.2516 35.1031 93.1414 28.4387 92.3336 27.3738C91.5992 26.3824 91.0852 26.1621 89.2859 26.107L87.5785 26.0336L87.2481 25.0055C87.0645 24.418 86.6238 23.2797 86.2383 22.4719L85.5406 20.9664L86.5504 19.9934C88.0926 18.4879 88.4047 17.4965 87.7254 16.193C86.8442 14.5223 82.75 10.5383 81.3547 9.9875C80.2164 9.54687 79.3535 9.85898 77.9031 11.2176L76.7281 12.3008L75.2043 11.5664C74.3598 11.1625 73.2215 10.6852 72.7074 10.5383L71.7344 10.2629V8.79414C71.7344 6.59101 71.1469 5.58125 69.6231 5.15898C68.6316 4.90195 64.4274 4.75507 62.8117 4.95703ZM67.3832 7.82109L68.7969 7.94961V9.91406C68.7969 12.4109 68.8703 12.5027 71.0918 13.127C72.0098 13.384 73.6438 14.0449 74.7453 14.5957C75.8285 15.1465 76.9301 15.6055 77.1871 15.6055C77.5176 15.6055 78.0684 15.2016 79.0965 14.2102L80.5285 12.7965L81.7219 13.843C82.9703 14.9262 84.9531 17.0926 84.9531 17.3496C84.9531 17.4414 84.3289 18.1391 83.5762 18.9285C82.75 19.773 82.1992 20.4891 82.1992 20.7277C82.1992 20.9297 82.6031 21.866 83.0988 22.8023C83.9617 24.418 84.4758 25.7215 84.9531 27.5023C85.302 28.8793 85.5774 29.0078 87.8723 29.0078H89.8551L89.9836 29.9625C90.1305 31.2109 90.1305 33.4875 89.9836 34.5707L89.8734 35.3969L87.8723 35.4703C85.4305 35.5437 85.4121 35.5621 84.6227 38.0957C84.3106 39.1055 83.6313 40.7395 83.1172 41.7309C82.6215 42.7039 82.1992 43.6953 82.1992 43.8973C82.1992 44.1359 82.75 44.852 83.5945 45.7332C85.1734 47.3488 85.1734 47.0551 83.7047 48.7441C83.2641 49.2398 82.3645 50.1395 81.6852 50.727L80.4734 51.7734L79.0781 50.4332C78.3254 49.6805 77.5359 49.0195 77.3524 48.9461C77.1137 48.8543 76.3793 49.148 75.0574 49.8273C73.9926 50.3781 72.2668 51.0758 71.2387 51.4062C69.9719 51.7918 69.2559 52.1223 69.0723 52.3793C68.8703 52.673 68.7969 53.2789 68.7969 54.6375C68.7969 56.1797 68.7418 56.5285 68.5031 56.6203C68.1359 56.7672 63.032 56.7672 62.6649 56.6203C62.4262 56.5285 62.3711 56.1797 62.3711 54.7293C62.3711 52.2324 62.3527 52.1957 59.709 51.3145C58.4973 50.9105 56.7715 50.1762 55.8719 49.6988C54.7703 49.1297 54.091 48.8727 53.8524 48.9461C53.632 49.0012 52.8426 49.6805 52.0715 50.4332L50.6762 51.8102L49.3176 50.6168C47.959 49.4418 46.2149 47.5324 46.2149 47.2387C46.2149 47.1469 46.784 46.5043 47.5 45.8066C48.1977 45.109 48.8219 44.3379 48.877 44.0625C48.9504 43.7137 48.7301 43.0895 47.9957 41.6758C47.4449 40.6109 46.8024 39.1238 46.582 38.3711C45.8844 36.0762 45.8293 35.9477 45.1867 35.6906C44.8195 35.5437 43.9199 35.4336 42.9469 35.4336H41.3129L41.1844 34.8645C41.0375 34.1301 41.0375 30.5867 41.1844 29.6871L41.3129 29.0078H43.259C44.5992 28.9895 45.3152 28.916 45.5356 28.7508C45.7192 28.6039 46.1047 27.6859 46.4168 26.6945C46.7289 25.6848 47.4266 23.9957 47.9774 22.9309C48.5281 21.866 48.9688 20.8379 48.9688 20.6543C48.9688 20.4891 48.3445 19.6996 47.5918 18.9285C46.8391 18.1391 46.2149 17.423 46.2149 17.3129C46.2149 17.0559 48.7484 14.357 49.7949 13.5125L50.6395 12.8148L52.0715 14.2102C53.1363 15.2199 53.6504 15.6055 53.9992 15.6055C54.2563 15.6055 55.1559 15.2383 56.0004 14.7977C56.8266 14.357 58.1668 13.7695 58.9746 13.4941C61.8387 12.5395 61.9488 12.4844 62.1691 12.007C62.2793 11.75 62.3711 10.7402 62.3711 9.73047V7.91289L63.3441 7.83945C65.1984 7.71093 66.0063 7.71093 67.3832 7.82109Z" fill="#F0F9FF"/>
<path id="Vector_2" d="M62.5546 17.9001C57.1202 19.1118 52.7691 23.2794 51.337 28.6403C50.5659 31.5411 50.8046 34.9376 51.9796 37.8567C53.6503 41.9876 57.3038 45.2188 61.7652 46.4856C63.8214 47.0731 67.3648 47.0731 69.421 46.4856C74.58 45.0169 78.6007 40.886 79.8124 35.8005C80.2531 33.9278 80.3081 30.972 79.9226 29.1728C78.8577 24.1423 75.039 19.9563 70.0452 18.3224C68.5948 17.845 67.989 17.7532 66.0429 17.6981C64.4823 17.6431 63.3624 17.7165 62.5546 17.9001ZM69.3109 21.1681C72.8175 22.3981 75.3327 24.895 76.6546 28.42C77.2605 30.0724 77.4257 33.3036 76.9851 35.0661C76.1589 38.3524 73.8089 41.2899 70.8163 42.7587C68.7968 43.7501 66.9792 44.1356 64.923 44.0071C59.7823 43.695 55.5413 40.2251 54.1827 35.2313C53.6687 33.3587 53.7421 30.5681 54.3663 28.7321C55.7066 24.8032 58.6808 21.9759 62.5913 20.9294C64.5191 20.397 67.4566 20.5071 69.3109 21.1681Z" fill="#F0F9FF"/>
<path id="Vector_3" d="M70.082 27.2084C69.825 27.3002 68.3562 28.824 66.7773 30.6416L63.9316 33.9279L62.5363 32.5693C61.3797 31.4677 61.0125 31.2107 60.5535 31.2107C59.7641 31.2107 59.0664 31.9267 59.0664 32.6978C59.0664 33.1935 59.3602 33.5791 61.0125 35.2681C63.1238 37.3978 63.6746 37.765 64.4273 37.4713C64.868 37.306 71.4223 29.9256 71.8812 29.081C72.4687 27.9795 71.3121 26.7861 70.082 27.2084Z" fill="#F0F9FF"/>
<path id="Vector_4" d="M5.87926 46.449C4.42887 46.7611 3.21715 47.6974 2.46442 49.0928C2.06051 49.8455 2.06051 49.8822 2.00543 64.1658C1.96871 74.0799 2.00543 78.7615 2.15231 79.4041C2.4277 80.6525 3.34567 81.8642 4.55738 82.5252C5.53043 83.076 5.58551 83.076 8.76168 83.131C12.8007 83.2228 13.6086 83.1127 14.8386 82.3783C15.9402 81.7174 16.9132 80.3404 17.1152 79.1103C17.2254 78.4861 17.3172 78.3943 17.8312 78.2842C18.7308 78.1189 21.6132 78.6881 23.4125 79.3857C25.5422 80.2119 28.0941 81.4971 32.6105 84.049C36.723 86.3623 39.8257 87.9045 41.5515 88.4736C43.0937 88.9877 45.0398 89.2814 46.0312 89.1346C47.8672 88.8775 88.0007 78.0088 89.1023 77.4764C91.1953 76.4666 92.7375 74.1533 92.9761 71.7482C93.2515 68.6639 91.6359 65.965 88.6617 64.5697C86.4218 63.5232 86.1832 63.5599 70.6695 66.883C63.2707 68.4619 57.0836 69.7654 56.9367 69.7654C56.7347 69.7654 56.698 69.6369 56.8082 69.2514C56.9 68.976 56.955 68.1131 56.9367 67.342C56.9183 66.1303 56.8265 65.7264 56.3308 64.7533C56.0004 64.074 55.3945 63.2295 54.8988 62.7705C54.348 62.2564 51.1168 60.292 46.2148 57.4646C37.5859 52.526 37.3105 52.3424 35.4746 50.8002C33.3265 49.001 30.9214 48.1014 28.2226 48.1014C25.9093 48.1014 21.705 48.9275 18.5289 50.0107C17.2988 50.433 17.1886 50.4514 17.0968 50.1576C16.5644 48.5053 15.6281 47.367 14.2879 46.7428C13.5351 46.4123 13.0578 46.3572 10.0468 46.3205C8.17418 46.3021 6.30153 46.3572 5.87926 46.449ZM12.8558 49.4049C13.3332 49.5334 13.6636 49.7904 13.9023 50.176C14.2511 50.7451 14.2695 51.2224 14.2695 64.6799C14.2695 79.9916 14.3062 79.3674 13.1496 79.9549C12.6906 80.2119 12.0113 80.2486 9.2941 80.1935L6.00778 80.1385L5.51207 79.6244L4.99801 79.1287L4.94293 64.9369C4.90621 51.1123 4.90621 50.7451 5.2734 50.176C5.49371 49.8088 5.8609 49.515 6.22809 49.4049C7.05426 49.1662 11.9929 49.1662 12.8558 49.4049ZM31.1601 51.5713C31.7843 51.8099 32.9043 52.526 33.9875 53.4072C35.3277 54.4721 37.8797 56.051 43.6261 59.374C53.6871 65.1756 53.1179 64.79 53.6504 65.965C53.9074 66.4791 54.1093 67.1584 54.1093 67.4521C54.1093 69.8205 51.8144 71.7666 49.5929 71.2709C49.189 71.1791 45.8476 69.3615 42.1574 67.2502C38.4855 65.1205 35.2726 63.2846 35.0523 63.1744C33.7121 62.4584 32.3351 64.3494 33.4183 65.4142C33.9507 65.965 47.3898 73.676 48.3261 74.0064C49.4093 74.3553 51.4289 74.2818 52.7324 73.8412C53.3382 73.6392 56.8449 72.8314 60.5351 72.0603C64.2254 71.2892 70.8715 69.8756 75.3144 68.9392C79.7574 68.0029 83.9066 67.1217 84.5492 66.9931C87.3398 66.4607 89.6714 67.9846 90.0203 70.5549C90.2589 72.2806 89.1574 74.2635 87.5785 74.9611C86.7339 75.3467 46.6187 86.0869 45.5722 86.2154C43.7914 86.4541 40.0828 84.9303 34.0058 81.442C29.5996 78.9084 25.7257 77.0174 23.4492 76.3014C21.3929 75.6221 18.6207 75.1631 17.7394 75.3467L17.207 75.4385V64.4596V53.4807L19.3734 52.8197C22.1824 51.9568 23.5777 51.5896 25.3769 51.2959C27.3597 50.9654 29.875 51.0939 31.1601 51.5713Z" fill="#F0F9FF"/>
<path id="Vector_5" d="M8.41287 52.4709C6.65037 53.4256 6.77888 55.8673 8.63318 56.7853C10.5426 57.74 12.709 55.592 11.7726 53.6642C11.0933 52.3056 9.67967 51.7916 8.41287 52.4709Z" fill="#F0F9FF"/>
</g>
</g>
</svg>
