<svg width="43" height="43" viewBox="0 0 43 43" fill="none" xmlns="http://www.w3.org/2000/svg">
<g id="twitter_x_icon">
<g id="Group">
<path id="Vector" d="M21.7695 19.627L14.6552 9.67236H10.8607L19.6735 22.0027L20.7829 23.5538L28.3261 34.117H32.1206L22.8741 21.1781L21.7695 19.627Z" fill="#F0F9FF"/>
<path id="Vector_2" d="M37.5296 2.6001H5.47037C3.69174 2.6001 2.25 4.04184 2.25 5.82047V37.8797C2.25 39.6584 3.69174 41.1001 5.47037 41.1001H37.5296C39.3083 41.1001 40.75 39.6584 40.75 37.8797V5.82047C40.75 4.04184 39.3083 2.6001 37.5296 2.6001ZM27.1619 35.8501L19.5274 24.9773L9.97002 35.8501H7.5L18.4321 23.4169L7.5 7.8501H15.8381L23.0659 18.1435L32.1218 7.8501H34.5917L24.167 19.7075L35.5 35.8501H27.1619Z" fill="#F0F9FF"/>
</g>
</g>
</svg>
